<svg width="18" height="21" viewBox="0 0 18 21" fill="none" xmlns="http://www.w3.org/2000/svg">
<path d="M8.9478 0C9.50161 0 10.0327 0.221249 10.4244 0.615076C10.816 1.0089 11.036 1.54305 11.036 2.1C11.036 3.2655 10.1067 4.2 8.9478 4.2C8.39398 4.2 7.86285 3.97875 7.47124 3.58492C7.07963 3.1911 6.85963 2.65695 6.85963 2.1C6.85963 1.54305 7.07963 1.0089 7.47124 0.615076C7.86285 0.221249 8.39398 0 8.9478 0ZM9.35499 13.4295C10.8381 13.4237 12.3201 13.5114 13.7923 13.692C13.855 10.836 13.6044 8.316 13.1241 7.35C12.9884 7.0665 12.8005 6.825 12.6021 6.615L4.17633 13.881C5.59629 13.65 7.38167 13.4295 9.35499 13.4295ZM4.20766 15.75C4.34339 17.577 4.61485 19.425 5.05336 21H7.21462C6.91183 20.076 6.69258 18.9945 6.52552 17.85C6.52552 17.85 8.9478 17.388 11.3701 17.85C11.203 18.9945 10.9838 20.076 10.681 21H12.8422C13.3016 19.3725 13.5731 17.4405 13.7088 15.5295C12.2641 15.3538 10.8102 15.2662 9.35499 15.267C7.33991 15.267 5.58585 15.4875 4.20766 15.75ZM8.9478 5.25C8.9478 5.25 5.81555 5.25 4.77146 7.35C4.41647 8.064 4.18678 9.6075 4.11369 11.508L10.9524 5.607C9.91879 5.25 8.9478 5.25 8.9478 5.25ZM15.8074 3.8535L14.6172 2.457L10.9524 5.6175C11.5267 5.817 12.1323 6.132 12.6021 6.615L15.8074 3.8535ZM18 14.5215C17.906 14.49 16.4026 13.9965 13.7923 13.692C13.7819 14.2905 13.7506 14.91 13.7088 15.5295C16.058 15.8235 17.4049 16.275 17.4258 16.275L18 14.5215ZM4.11369 11.508L0 15.057L0.929235 16.611C0.950116 16.6005 2.16125 16.128 4.20766 15.75C4.09281 14.2695 4.06148 12.81 4.11369 11.508Z" fill="white" fill-opacity="0.35"/>
</svg>
