<svg width="20" height="14" viewBox="0 0 20 14" fill="none" xmlns="http://www.w3.org/2000/svg">
<path d="M11.3334 1.4V12.6C11.3334 12.9713 11.193 13.3274 10.9429 13.5899C10.6929 13.8525 10.3537 14 10.0001 14H6.66684C5.78683 14.0012 4.91533 13.8192 4.10273 13.4645C3.29012 13.1099 2.55253 12.5896 1.9326 11.9338C1.31267 11.278 0.822703 10.4996 0.491027 9.64377C0.15935 8.7879 -0.00745482 7.87148 0.000255599 6.9475C0.0252553 3.115 3.05022 0 6.74184 0H10.0001C10.3537 0 10.6929 0.147499 10.9429 0.41005C11.193 0.672601 11.3334 1.0287 11.3334 1.4ZM19.3333 10.5H13.3334C13.1566 10.5 12.987 10.5737 12.862 10.705C12.737 10.8363 12.6668 11.0143 12.6668 11.2C12.6668 11.3856 12.737 11.5637 12.862 11.695C12.987 11.8262 13.1566 11.9 13.3334 11.9H19.3333C19.5102 11.9 19.6797 11.8262 19.8047 11.695C19.9298 11.5637 20 11.3856 20 11.2C20 11.0143 19.9298 10.8363 19.8047 10.705C19.6797 10.5737 19.5102 10.5 19.3333 10.5ZM13.3334 3.5H19.3333C19.5102 3.5 19.6797 3.42625 19.8047 3.29497C19.9298 3.1637 20 2.98565 20 2.8C20 2.61435 19.9298 2.4363 19.8047 2.30502C19.6797 2.17375 19.5102 2.1 19.3333 2.1H13.3334C13.1566 2.1 12.987 2.17375 12.862 2.30502C12.737 2.4363 12.6668 2.61435 12.6668 2.8C12.6668 2.98565 12.737 3.1637 12.862 3.29497C12.987 3.42625 13.1566 3.5 13.3334 3.5ZM19.3333 4.9H13.3334C13.1566 4.9 12.987 4.97375 12.862 5.10502C12.737 5.2363 12.6668 5.41435 12.6668 5.6C12.6668 5.78565 12.737 5.9637 12.862 6.09497C12.987 6.22625 13.1566 6.3 13.3334 6.3H19.3333C19.5102 6.3 19.6797 6.22625 19.8047 6.09497C19.9298 5.9637 20 5.78565 20 5.6C20 5.41435 19.9298 5.2363 19.8047 5.10502C19.6797 4.97375 19.5102 4.9 19.3333 4.9ZM19.3333 7.7H13.3334C13.1566 7.7 12.987 7.77375 12.862 7.90502C12.737 8.0363 12.6668 8.21435 12.6668 8.4C12.6668 8.58565 12.737 8.7637 12.862 8.89497C12.987 9.02625 13.1566 9.1 13.3334 9.1H19.3333C19.5102 9.1 19.6797 9.02625 19.8047 8.89497C19.9298 8.7637 20 8.58565 20 8.4C20 8.21435 19.9298 8.0363 19.8047 7.90502C19.6797 7.77375 19.5102 7.7 19.3333 7.7Z" fill="white" fill-opacity="0.35"/>
</svg>
