<svg width="317" height="724" viewBox="0 0 317 724" fill="none" xmlns="http://www.w3.org/2000/svg">
<mask id="path-1-inside-1_4_396" fill="white">
<path d="M162.527 413.923C161.417 426.485 170.293 492.978 174.873 519.05C177.053 531.402 183.033 551.526 180.881 562.211C177.809 577.103 176.922 596.375 178.613 607.597C179.68 614.411 183.036 645.842 178.233 657.338C175.72 663.366 171.114 694.26 171.114 694.26C159.116 723.364 165.888 721.932 165.888 721.932C169.602 726.311 175.965 722.276 175.965 722.276C180.812 725.244 184.169 721.57 184.169 721.57C188.329 724.88 193.179 721.163 193.179 721.163C198.406 723.771 203.253 718.963 203.253 718.963C206.255 720.416 206.989 718.581 206.989 718.581C215.997 718.026 201.964 690.333 201.964 690.333C198.603 665.461 205.298 651.618 205.298 651.618C227.228 589.139 228.342 572.559 219.576 549.014C217.107 542.217 216.482 539.525 217.618 536.574C220.244 529.763 218.33 502.368 221.534 491.49C227.714 470.509 233.81 417.302 236.988 392.475C241.257 359.034 221.862 314.196 221.862 314.196C217.615 295.949 223.842 230.937 223.842 230.937C232.539 243.938 232.206 266.887 232.206 266.887C230.826 290.955 252.445 327.741 252.445 327.741C262.833 342.942 266.767 357.364 266.767 358.434C266.767 362.813 265.769 373.414 265.769 373.414L266.167 382.647C266.346 384.998 267.723 393.093 267.501 397.006C265.879 421.085 269.86 416.554 269.86 416.554C273.221 416.554 276.913 397.177 276.913 397.177C276.913 402.174 275.642 417.133 278.447 422.776C281.804 429.506 284.273 421.621 284.317 420.039C285.204 389.38 287.122 397.413 287.122 397.413C288.988 422.285 291.282 427.903 295.395 425.959C298.511 424.53 295.662 396.111 295.662 396.111C300.998 412.993 305.045 415.681 305.045 415.681C313.851 421.621 308.405 405.213 307.182 401.964C300.666 384.699 300.465 378.716 300.465 378.716C308.606 394.23 314.742 393.654 314.742 393.654C322.683 391.219 307.802 369.253 299.084 358.729C294.635 353.367 288.897 346.188 287.232 341.924C284.518 334.703 282.469 311.487 282.469 311.487C281.647 284.092 274.598 272.193 274.598 272.193C262.544 253.658 260.276 219.083 260.276 219.083L259.743 160.71C255.517 120.893 224.978 120.606 224.978 120.606C194.111 116.191 189.815 106.612 189.815 106.612C183.277 97.5723 187.014 80.2447 187.014 80.2447C192.438 76.0058 194.531 64.7523 194.531 64.7523C203.538 58.1167 203.096 48.4072 198.936 48.5125C195.597 48.5967 196.353 45.9403 196.353 45.9403C201.985 2.23175 161.596 0 161.596 0H155.431C155.431 0 115.023 2.23175 120.648 45.9298C120.648 45.9298 121.404 48.5896 118.036 48.5019C113.887 48.3966 113.5 58.1062 122.474 64.7418C122.474 64.7418 124.563 75.9917 129.991 80.2342C129.991 80.2342 133.727 97.5618 127.189 106.601C127.189 106.601 122.909 116.181 92.0265 120.595C92.0265 120.595 61.4367 120.883 57.2765 160.7L56.6994 219.073C56.6994 219.073 54.475 253.647 42.3742 272.182C42.3742 272.182 35.3577 284.085 34.5469 311.476C34.5469 311.476 32.4905 334.692 29.7876 341.914C28.1403 346.156 22.4059 353.336 17.9206 358.718C9.12536 369.221 -5.65638 391.142 2.25131 393.644C2.25131 393.644 8.42041 394.219 16.529 378.706C16.529 378.706 16.361 384.647 9.85585 401.953C8.57747 405.161 3.13888 421.569 11.9487 415.67C11.9487 415.67 16.0286 412.979 21.3321 396.1C21.3321 396.1 18.4867 424.52 21.6535 425.948C25.7918 427.896 28.049 422.274 29.9155 397.402C29.9155 397.402 31.8294 389.37 32.7169 420.028C32.7608 421.611 35.1751 429.496 38.5464 422.765C41.3917 417.123 40.1133 402.188 40.1133 397.167C40.1133 397.167 43.7622 416.544 47.1736 416.544C47.1736 416.544 51.1877 421.074 49.5404 396.995C49.2738 393.061 50.7092 384.987 50.8882 382.636L51.2754 373.404C51.2754 373.404 50.2746 362.828 50.2746 358.424C50.2746 357.332 54.212 342.931 64.5961 327.73C64.5961 327.73 86.1934 290.927 84.8018 266.876C84.8018 266.876 84.5023 243.927 93.1989 230.926C93.1989 230.926 99.3717 295.935 95.1896 314.185C95.1896 314.185 75.7618 359.024 80.0462 392.465C83.202 417.358 89.2871 470.495 95.4818 491.479C98.7179 502.336 96.804 529.724 99.3973 536.563C100.566 539.536 99.9525 542.273 97.4395 549.003C88.721 572.549 89.8313 589.132 111.761 651.607C111.761 651.607 118.511 665.451 115.099 690.323C115.099 690.323 101.088 718.016 110.063 718.57C110.063 718.57 110.764 720.406 113.799 718.953C113.799 718.953 118.646 723.76 123.884 721.153C123.884 721.153 128.734 724.872 132.88 721.56C132.88 721.56 136.204 725.234 141.051 722.265C141.051 722.265 147.413 726.388 151.194 721.921C151.194 721.921 157.911 723.353 145.952 694.249C145.952 694.249 141.372 663.394 138.848 657.327C134.034 645.835 137.435 614.338 138.461 607.586C140.116 596.301 139.228 577.075 136.204 562.201C133.99 551.54 139.984 531.412 142.197 519.039C146.745 492.992 155.657 426.495 154.543 413.912L158.225 415.154C160.862 415.161 162.527 413.923 162.527 413.923Z"/>
</mask>
<path d="M162.527 413.923C161.417 426.485 170.293 492.978 174.873 519.05C177.053 531.402 183.033 551.526 180.881 562.211C177.809 577.103 176.922 596.375 178.613 607.597C179.68 614.411 183.036 645.842 178.233 657.338C175.72 663.366 171.114 694.26 171.114 694.26C159.116 723.364 165.888 721.932 165.888 721.932C169.602 726.311 175.965 722.276 175.965 722.276C180.812 725.244 184.169 721.57 184.169 721.57C188.329 724.88 193.179 721.163 193.179 721.163C198.406 723.771 203.253 718.963 203.253 718.963C206.255 720.416 206.989 718.581 206.989 718.581C215.997 718.026 201.964 690.333 201.964 690.333C198.603 665.461 205.298 651.618 205.298 651.618C227.228 589.139 228.342 572.559 219.576 549.014C217.107 542.217 216.482 539.525 217.618 536.574C220.244 529.763 218.33 502.368 221.534 491.49C227.714 470.509 233.81 417.302 236.988 392.475C241.257 359.034 221.862 314.196 221.862 314.196C217.615 295.949 223.842 230.937 223.842 230.937C232.539 243.938 232.206 266.887 232.206 266.887C230.826 290.955 252.445 327.741 252.445 327.741C262.833 342.942 266.767 357.364 266.767 358.434C266.767 362.813 265.769 373.414 265.769 373.414L266.167 382.647C266.346 384.998 267.723 393.093 267.501 397.006C265.879 421.085 269.86 416.554 269.86 416.554C273.221 416.554 276.913 397.177 276.913 397.177C276.913 402.174 275.642 417.133 278.447 422.776C281.804 429.506 284.273 421.621 284.317 420.039C285.204 389.38 287.122 397.413 287.122 397.413C288.988 422.285 291.282 427.903 295.395 425.959C298.511 424.53 295.662 396.111 295.662 396.111C300.998 412.993 305.045 415.681 305.045 415.681C313.851 421.621 308.405 405.213 307.182 401.964C300.666 384.699 300.465 378.716 300.465 378.716C308.606 394.23 314.742 393.654 314.742 393.654C322.683 391.219 307.802 369.253 299.084 358.729C294.635 353.367 288.897 346.188 287.232 341.924C284.518 334.703 282.469 311.487 282.469 311.487C281.647 284.092 274.598 272.193 274.598 272.193C262.544 253.658 260.276 219.083 260.276 219.083L259.743 160.71C255.517 120.893 224.978 120.606 224.978 120.606C194.111 116.191 189.815 106.612 189.815 106.612C183.277 97.5723 187.014 80.2447 187.014 80.2447C192.438 76.0058 194.531 64.7523 194.531 64.7523C203.538 58.1167 203.096 48.4072 198.936 48.5125C195.597 48.5967 196.353 45.9403 196.353 45.9403C201.985 2.23175 161.596 0 161.596 0H155.431C155.431 0 115.023 2.23175 120.648 45.9298C120.648 45.9298 121.404 48.5896 118.036 48.5019C113.887 48.3966 113.5 58.1062 122.474 64.7418C122.474 64.7418 124.563 75.9917 129.991 80.2342C129.991 80.2342 133.727 97.5618 127.189 106.601C127.189 106.601 122.909 116.181 92.0265 120.595C92.0265 120.595 61.4367 120.883 57.2765 160.7L56.6994 219.073C56.6994 219.073 54.475 253.647 42.3742 272.182C42.3742 272.182 35.3577 284.085 34.5469 311.476C34.5469 311.476 32.4905 334.692 29.7876 341.914C28.1403 346.156 22.4059 353.336 17.9206 358.718C9.12536 369.221 -5.65638 391.142 2.25131 393.644C2.25131 393.644 8.42041 394.219 16.529 378.706C16.529 378.706 16.361 384.647 9.85585 401.953C8.57747 405.161 3.13888 421.569 11.9487 415.67C11.9487 415.67 16.0286 412.979 21.3321 396.1C21.3321 396.1 18.4867 424.52 21.6535 425.948C25.7918 427.896 28.049 422.274 29.9155 397.402C29.9155 397.402 31.8294 389.37 32.7169 420.028C32.7608 421.611 35.1751 429.496 38.5464 422.765C41.3917 417.123 40.1133 402.188 40.1133 397.167C40.1133 397.167 43.7622 416.544 47.1736 416.544C47.1736 416.544 51.1877 421.074 49.5404 396.995C49.2738 393.061 50.7092 384.987 50.8882 382.636L51.2754 373.404C51.2754 373.404 50.2746 362.828 50.2746 358.424C50.2746 357.332 54.212 342.931 64.5961 327.73C64.5961 327.73 86.1934 290.927 84.8018 266.876C84.8018 266.876 84.5023 243.927 93.1989 230.926C93.1989 230.926 99.3717 295.935 95.1896 314.185C95.1896 314.185 75.7618 359.024 80.0462 392.465C83.202 417.358 89.2871 470.495 95.4818 491.479C98.7179 502.336 96.804 529.724 99.3973 536.563C100.566 539.536 99.9525 542.273 97.4395 549.003C88.721 572.549 89.8313 589.132 111.761 651.607C111.761 651.607 118.511 665.451 115.099 690.323C115.099 690.323 101.088 718.016 110.063 718.57C110.063 718.57 110.764 720.406 113.799 718.953C113.799 718.953 118.646 723.76 123.884 721.153C123.884 721.153 128.734 724.872 132.88 721.56C132.88 721.56 136.204 725.234 141.051 722.265C141.051 722.265 147.413 726.388 151.194 721.921C151.194 721.921 157.911 723.353 145.952 694.249C145.952 694.249 141.372 663.394 138.848 657.327C134.034 645.835 137.435 614.338 138.461 607.586C140.116 596.301 139.228 577.075 136.204 562.201C133.99 551.54 139.984 531.412 142.197 519.039C146.745 492.992 155.657 426.495 154.543 413.912L158.225 415.154C160.862 415.161 162.527 413.923 162.527 413.923Z" stroke="white" stroke-opacity="0.08" stroke-width="2" mask="url(#path-1-inside-1_4_396)"/>
</svg>
