<svg width="17" height="17" viewBox="0 0 17 17" fill="none" xmlns="http://www.w3.org/2000/svg">
<path d="M7.43481 0.69098C7.73416 -0.230331 9.03757 -0.230329 9.33692 0.690982L10.631 4.67376C10.7649 5.08578 11.1488 5.36474 11.5821 5.36474H15.7698C16.7385 5.36474 17.1413 6.60436 16.3576 7.17376L12.9696 9.63525C12.6191 9.8899 12.4725 10.3413 12.6064 10.7533L13.9004 14.7361C14.1998 15.6574 13.1453 16.4235 12.3616 15.8541L8.97365 13.3926C8.62316 13.138 8.14857 13.138 7.79808 13.3926L4.41012 15.8541C3.62641 16.4235 2.57193 15.6574 2.87128 14.7361L4.16537 10.7533C4.29924 10.3413 4.15258 9.8899 3.80209 9.63525L0.414139 7.17376C-0.369575 6.60436 0.0332026 5.36474 1.00193 5.36474H5.18967C5.62289 5.36474 6.00685 5.08578 6.14072 4.67376L7.43481 0.69098Z" fill="#FFC633"/>
</svg>
