<svg width="32" height="36" viewBox="0 0 32 36" fill="none" xmlns="http://www.w3.org/2000/svg">
<path d="M0 36V4C0 2.9 0.380121 1.958 1.14036 1.174C1.89931 0.391333 2.81212 0 3.87879 0H15.5152C16.5818 0 17.4953 0.391333 18.2555 1.174C19.0145 1.958 19.3939 2.9 19.3939 4V18H21.3333C22.4 18 23.3135 18.3913 24.0737 19.174C24.8326 19.958 25.2121 20.9 25.2121 22V31C25.2121 31.5667 25.3983 32.0413 25.7707 32.424C26.1417 32.808 26.602 33 27.1515 33C27.701 33 28.1613 32.808 28.5324 32.424C28.9047 32.0413 29.0909 31.5667 29.0909 31V16.6C28.8 16.7667 28.4929 16.8747 28.1697 16.924C27.8465 16.9747 27.5071 17 27.1515 17C25.7939 17 24.6465 16.5167 23.7091 15.55C22.7717 14.5833 22.303 13.4 22.303 12C22.303 10.9333 22.5862 9.97467 23.1525 9.124C23.7175 8.27467 24.4687 7.66667 25.4061 7.3L21.3333 3.1L23.3697 1L30.5455 8.2C31.0303 8.7 31.3936 9.28333 31.6354 9.95C31.8785 10.6167 32 11.3 32 12V31C32 32.4 31.5313 33.5833 30.5939 34.55C29.6566 35.5167 28.5091 36 27.1515 36C25.7939 36 24.6465 35.5167 23.7091 34.55C22.7717 33.5833 22.303 32.4 22.303 31V21H19.3939V36H0ZM3.87879 14H15.5152V4H3.87879V14ZM27.1515 14C27.701 14 28.1613 13.808 28.5324 13.424C28.9047 13.0413 29.0909 12.5667 29.0909 12C29.0909 11.4333 28.9047 10.958 28.5324 10.574C28.1613 10.1913 27.701 10 27.1515 10C26.602 10 26.1417 10.1913 25.7707 10.574C25.3983 10.958 25.2121 11.4333 25.2121 12C25.2121 12.5667 25.3983 13.0413 25.7707 13.424C26.1417 13.808 26.602 14 27.1515 14Z" fill="#FFB64B"/>
</svg>
