<svg xmlns="http://www.w3.org/2000/svg" viewBox="0 0 76.58 76.58"><defs><style>.cls-1{fill:#090116;}.cls-1,.cls-2{opacity:0;}.cls-2{fill:none;stroke:#581ec6;stroke-miterlimit:10;}.cls-3{opacity:0.7;}.cls-4{fill:#f2ebff;}</style></defs><title>Asset 1</title><g id="Layer_2" data-name="Layer 2"><g id="Layer_1-2" data-name="Layer 1"><rect class="cls-1" x="0.5" y="0.5" width="75.58" height="75.58"/><rect class="cls-2" x="0.5" y="0.5" width="75.58" height="75.58"/><g class="cls-3"><path class="cls-4" d="M34.13,32.66,30.42,36.2c.73.83,1.46,1.6,2.12,2.42a5.3,5.3,0,0,1,1.1,5.28,19.74,19.74,0,0,1-1,2.13,1.11,1.11,0,0,0,.13.17c1.62,1.7,3.23,3.41,4.86,5.1.62.63,1.49.48,1.7-.29a1,1,0,0,0-.35-1l-3.18-3.32c-.1-.11-.27-.22-.29-.35a.76.76,0,0,1,.08-.6c.08-.1.37-.08.55,0s.24.2.34.31l5.3,5.55.26.27a1,1,0,0,0,1.36.08.93.93,0,0,0,0-1.39c-1.46-1.54-2.93-3.07-4.4-4.61-.12-.12-.23-.25-.35-.38s-.29-.5,0-.73.5-.16.73.08c.91,1,1.82,1.92,2.74,2.87,1.09,1.15,2.18,2.29,3.29,3.43A.92.92,0,0,0,46.85,51a1,1,0,0,0-.28-1.27c-1.76-1.83-3.51-3.67-5.27-5.51a4.94,4.94,0,0,1-.66-.72.81.81,0,0,1-.06-.69c.19-.28.5-.18.72,0,.46.45.9.92,1.34,1.39l3.21,3.36a2.45,2.45,0,0,0,.56.46.86.86,0,0,0,1.13-.22.88.88,0,0,0,.05-1.11,3.25,3.25,0,0,0-.35-.39q-3.45-3.63-6.92-7.25A1.06,1.06,0,0,1,40,37.92a.94.94,0,0,1,1-.59l2.09.05a1.43,1.43,0,1,0,.07-2.83c-2.27,0-4.53-.09-6.79-.17a1.56,1.56,0,0,1-.9-.39A18.28,18.28,0,0,1,34.13,32.66Z"/><path class="cls-4" d="M33.69,27.08c-.08.1-.11.12-.12.15-.73,1.33-.73,1.33.31,2.41a3.13,3.13,0,0,1,.63.69,2.55,2.55,0,0,1,.35,1.2,1.07,1.07,0,0,0,.24.78,2.83,2.83,0,0,0,2.67,1.19c1.73-.06,3.47.07,5.21.09a2.52,2.52,0,0,1,2.37,1.24.83.83,0,0,0,.35.29c1.51.76,3,1.51,4.54,2.25A1,1,0,0,0,51.72,37c.24-.53,0-1-.64-1.34L42,31.16c-.15-.08-.36-.12-.45-.25-.19-.28-.48-.62-.45-.91a1.17,1.17,0,0,1,.62-.79c.74-.34,1.55-.53,2.31-.83a1.43,1.43,0,0,0,.38-2.49,1.5,1.5,0,0,0-1.53-.15c-2.07.74-4.15,1.45-6.21,2.21a1.51,1.51,0,0,1-1.43-.1C34.74,27.57,34.21,27.34,33.69,27.08Z"/><path class="cls-4" d="M32.33,29.4c.4.43.82.85,1.23,1.28s.52.71,0,1.24l-6.45,6.16-.44.38L24.38,36.1l7.05-6.74A.55.55,0,0,1,32.33,29.4Zm-.64.78a.57.57,0,0,0-.51.11.63.63,0,0,0-.07.51c0,.15.2.28.36.48l-3.71,3.54-1.32,1.26a.47.47,0,0,0-.08.73c.24.26.5.18.73,0,1.67-1.59,3.35-3.18,5-4.79A1.09,1.09,0,0,0,31.69,30.18Z"/><path class="cls-4" d="M29.77,36.83c-.64.61-1.18,1.11-1.7,1.64a.43.43,0,0,0,0,.4c.75,1.53,1.49,3.07,2.31,4.56a15.47,15.47,0,0,0,1.37,1.82,4.23,4.23,0,0,0,.55-5.31C31.55,38.85,30.64,37.89,29.77,36.83Z"/><path class="cls-4" d="M30.66,26.66c-.19-.12-.4-.18-.47-.31a.8.8,0,0,1-.11-.59.59.59,0,0,1,.51-.2,1.1,1.1,0,0,1,.82,1.73l-.59,1.18c.39-.1.77-.18,1.13-.3.09,0,.16-.16.22-.27.26-.52.52-1.06.79-1.59a.53.53,0,0,0-.26-.82l-2-1a.5.5,0,0,0-.75.24l-4.22,8.58s0,0,0,.08c1-.92,1.95-1.79,2.83-2.75a6.71,6.71,0,0,0,.84-1.62C29.87,28.26,30.26,27.47,30.66,26.66Z"/><path class="cls-4" d="M40.84,38.28a8.82,8.82,0,0,0,2.31,2c1.49.67,2.94,1.44,4.41,2.16.12.06.25.13.38.18a1,1,0,0,0,1.23-.49.87.87,0,0,0-.4-1.2c-1.7-.87-3.43-1.71-5.14-2.56a.47.47,0,0,0-.2-.06Z"/><path class="cls-4" d="M45.7,36.18l-.85,1.71a3.44,3.44,0,0,0,.34.2l5.34,2.64.24.11a1,1,0,1,0,.84-1.73c-1-.5-2-1-3-1.47Z"/></g></g></g></svg>