<svg xmlns="http://www.w3.org/2000/svg" viewBox="0 0 76.58 76.58"><defs><style>.cls-1{opacity:0;}.cls-2{fill:#090116;}.cls-2,.cls-3{opacity:0.61;}.cls-3{fill:none;stroke:#581ec6;stroke-miterlimit:10;}.cls-4{fill:#f2ebff;opacity:0.7;}</style></defs><title>braceletsicon</title><g id="Layer_2" data-name="Layer 2"><g id="Layer_1-2" data-name="Layer 1"><g class="cls-1"><rect class="cls-2" x="0.5" y="0.5" width="75.58" height="75.58"/><rect class="cls-3" x="0.5" y="0.5" width="75.58" height="75.58"/></g><path class="cls-4" d="M34.53,23.81a9.43,9.43,0,0,0-3-.27,7,7,0,0,0-1.65.35,6,6,0,0,0-1.54.83A5.8,5.8,0,0,0,27.15,26a6.61,6.61,0,0,0-.68,1.39A8.32,8.32,0,0,0,26.1,30a13.14,13.14,0,0,0,.3,2.47,21.59,21.59,0,0,0,.62,2.3c.37,1.08.79,2.13,1.26,3.16a8.2,8.2,0,0,0,1,2L32.18,39s-2.59-6.49-1.33-10.86a.8.8,0,0,1,1.1-.46,7.12,7.12,0,0,1,.9.39,15.3,15.3,0,0,1,3,2.39,37.84,37.84,0,0,1,5,6.39l.15.26a34.33,34.33,0,0,1,3.19,7.26,11.33,11.33,0,0,1,.51,3.48,3.72,3.72,0,0,1-.15.85.79.79,0,0,1-1.08.49c-4.88-1.69-9.53-7.28-9.53-7.28l-2.59,1.47a8.32,8.32,0,0,0,1.32,1.85c.7.93,1.44,1.83,2.26,2.72.57.61,1.17,1.21,1.82,1.78a16.81,16.81,0,0,0,2.16,1.65,11.78,11.78,0,0,0,2.76,1.32,10.07,10.07,0,0,0,1.72.34A7.12,7.12,0,0,0,45.2,53a6.25,6.25,0,0,0,1.69-.58,5.75,5.75,0,0,0,1.3-.93,7,7,0,0,0,1.53-2.26,11.14,11.14,0,0,0,.75-4.76,20.75,20.75,0,0,0-2.84-9.15c-.16-.28-.33-.56-.5-.84s-.41-.71-.63-1.06a24.49,24.49,0,0,0-7-7.33A16.11,16.11,0,0,0,34.53,23.81ZM48.31,45l-1.63.79-.8-1.64,1.64-.79Zm-1.87-7.22-1.16,1.39L43.88,38l1.17-1.4Zm-4.14-4.9-1.8-.26.26-1.8,1.8.26Zm-5-4.65-1.79-.34.34-1.79,1.79.34Z"/></g></g></svg>