<svg xmlns="http://www.w3.org/2000/svg" viewBox="0 0 76.58 76.58"><defs><style>.cls-1{fill:#090116;}.cls-1,.cls-2{opacity:0;}.cls-2{fill:none;stroke:#581ec6;stroke-miterlimit:10;}.cls-3{opacity:0.7;}.cls-4{fill:#f2ebff;}</style></defs><title>Asset 7</title><g id="Layer_2" data-name="Layer 2"><g id="Layer_1-2" data-name="Layer 1"><rect class="cls-1" x="0.5" y="0.5" width="75.58" height="75.58"/><rect class="cls-2" x="0.5" y="0.5" width="75.58" height="75.58"/><g class="cls-3"><path class="cls-4" d="M52.53,29.73a2.45,2.45,0,0,0-2.19-2.06V25.36H48.67v2.16a2.44,2.44,0,0,0-2.31,1.94A32.49,32.49,0,0,0,46,32.72,2.27,2.27,0,0,0,47.4,35c.14.08.3.13.46.21-.08.34-.15.66-.21,1a2.6,2.6,0,0,0-2.94,2c-.27.75-.56,1.49-.82,2.24A2.19,2.19,0,0,0,44,42.26a9.89,9.89,0,0,0,.91,1.22c-.08.11-.18.25-.28.41a2.72,2.72,0,0,0-3,.39c-.61.45-1.27.84-1.91,1.26a2.38,2.38,0,0,0-1.09,1.8,7.31,7.31,0,0,0,0,1h-.76a2.56,2.56,0,0,0-1.28-3c-.49-.3-1-.61-1.44-1A2.85,2.85,0,0,0,32,43.87a3.11,3.11,0,0,1-.18-.27,1.34,1.34,0,0,1-.11-.21,2.62,2.62,0,0,0,.82-3.51c-.3-.7-.52-1.43-.8-2.14a2.43,2.43,0,0,0-2.36-1.56H29c-.07-.35-.14-.67-.2-1,1.6-.76,2-1.55,1.78-3.27-.08-.53-.13-1.07-.18-1.6-.17-1.78-.7-2.41-2.46-2.86V25.36H26.24c0,.67,0,1.3,0,1.93,0,.28-.07.41-.37.5A2.4,2.4,0,0,0,24,30.52c.09.91.2,1.81.31,2.71a2.43,2.43,0,0,0,1.95,2.11,6.46,6.46,0,0,0,.78.07c.1.47.2.92.29,1.35-1.63.86-2,1.9-1.41,3.58l.8,2.13a2.43,2.43,0,0,0,3,1.65.6.6,0,0,1,.48.18,7.94,7.94,0,0,1,.55.87l-.32.51a2.44,2.44,0,0,0,.75,3.7c.71.47,1.42.95,2.14,1.4a2.44,2.44,0,0,0,3.31-.51,1,1,0,0,1,.64-.24c.63,0,1.26,0,1.88,0a.7.7,0,0,1,.7.29,2.36,2.36,0,0,0,3.16.53c.84-.52,1.66-1.06,2.47-1.63A2.32,2.32,0,0,0,46.2,46a1.13,1.13,0,0,1,0-1.52.63.63,0,0,1,.8-.31,2.31,2.31,0,0,0,2.7-1.36c.42-1,.79-2,1.12-3a2.32,2.32,0,0,0-.91-2.61,7.33,7.33,0,0,0-.67-.39l.3-1.35c1.61-.13,2.53-.86,2.7-2.14.09-.63.17-1.25.22-1.88A6.64,6.64,0,0,0,52.53,29.73ZM26.6,32.5c0,.41.09.77.13,1.14a.91.91,0,0,0-.16.11c-.18-.22-.48-.43-.52-.68a25.24,25.24,0,0,1-.34-2.87c0-.26.23-.54.36-.81l.23.1c0,.31.05.62.09,1L28,30.38c0-.39,0-.73-.05-1.08l.15-.1c.16.22.42.42.45.66a27.7,27.7,0,0,1,.33,2.87c0,.25-.2.51-.3.77l-.19-.06c-.06-.36-.13-.71-.21-1.13ZM31,41.8l-.17,0-.53-1.07-1.51.64.45,1.07a.67.67,0,0,1-.88-.44c-.34-.87-.67-1.76-1-2.65a.73.73,0,0,1,.38-.94l.39,1.08L29.72,39l-.29-1.15c.71,0,.81.55.91,1C30.57,39.84,31.44,40.7,31,41.8Zm5.17,6.12c-.26-.11-.5-.23-.8-.37l-.86,1.36.62.45a1.21,1.21,0,0,1,0,.18,2.86,2.86,0,0,1-.84-.18c-.76-.45-1.5-1-2.23-1.46-.51-.35-.54-.66-.17-1.26l.65.8,1.22-1.26-.68-.81,0-.1a1.49,1.49,0,0,1,.48.14c.79.49,1.56,1,2.33,1.52A.75.75,0,0,1,36.2,47.92Zm8.4-.11c-.81.57-1.63,1.1-2.47,1.62-.18.11-.46.06-.69.09l0-.14.66-.44c-.29-.46-.56-.9-.86-1.36l-.84.39a.64.64,0,0,1,.15-1c.8-.57,1.63-1.1,2.46-1.63a.75.75,0,0,1,.58,0c-.24.3-.49.59-.74.89L44,47.46l.54-.82C45,47.13,45,47.53,44.6,47.81Zm4.59-8.48c-.28.92-.63,1.82-1,2.72a.73.73,0,0,1-.91.44c.11-.28.2-.53.32-.85L46.13,41l-.41.81h-.18c0-.29-.15-.64,0-.87.5-1,.48-2.37,1.5-3.12l.19.08c-.07.31-.15.63-.23,1l1.54.5.3-.88.22,0C49.09,38.76,49.27,39.09,49.19,39.33Zm1.71-9.16c-.09,1-.19,2-.35,2.94,0,.24-.34.44-.52.65l-.17-.1c0-.36.08-.72.12-1.15l-1.62-.21c-.07.4-.13.76-.19,1.12l-.18.07c-.11-.25-.32-.5-.31-.74.06-1,.17-1.93.32-2.88,0-.24.28-.45.43-.67l.15.08v1.09l1.61.13c0-.36.07-.68.11-1A.6.6,0,0,1,50.9,30.17Z"/></g></g></g></svg>