<svg xmlns="http://www.w3.org/2000/svg" viewBox="0 0 76.58 76.58"><defs><style>.cls-1{fill:#090116;}.cls-1,.cls-2{opacity:0;}.cls-2{fill:none;stroke:#581ec6;stroke-miterlimit:10;}.cls-3{opacity:0.7;}.cls-4{fill:#f2ebff;}</style></defs><title>Asset 9</title><g id="Layer_2" data-name="Layer 2"><g id="Layer_1-2" data-name="Layer 1"><rect class="cls-1" x="0.5" y="0.5" width="75.58" height="75.58"/><rect class="cls-2" x="0.5" y="0.5" width="75.58" height="75.58"/><g class="cls-3"><path class="cls-4" d="M31.92,35.43a1.46,1.46,0,0,0-.18-.11c-1-.5-1.22-.84-1-2a2.1,2.1,0,0,1,1.72-1.87,1.75,1.75,0,0,1,2.06,1.12,7.11,7.11,0,0,1,.43,1.72A1.66,1.66,0,0,0,36,35.86c.24.09.44.22.34.52s-.36.26-.59.19a2.39,2.39,0,0,1-1.62-2.06,7.25,7.25,0,0,0-.39-1.59,1,1,0,0,0-1.06-.69,1.17,1.17,0,0,0-1.13.78,2.89,2.89,0,0,0-.16,1,.75.75,0,0,0,.35.48c.55.35,1.15.62,1.7,1a1.32,1.32,0,0,1,0,2.22.7.7,0,0,0,0,1.22,1.35,1.35,0,0,1,0,2.29c-.14.1-.2.3-.3.45a1.58,1.58,0,0,0,.44.24,4.82,4.82,0,0,1,4,3.91A5,5,0,0,1,35.39,51,5,5,0,1,1,32,41.86c.13,0,.33-.14.33-.21a.53.53,0,0,0-.21-.4,1.34,1.34,0,0,1,0-2.4.81.81,0,0,0,0-1.06C31.21,37.07,31.12,36.39,31.92,35.43Z"/><path class="cls-4" d="M43.11,28.83l-.15-.1c-1.08-.53-1.32-1-1-2.17A2.09,2.09,0,0,1,44,24.87a1.69,1.69,0,0,1,1.6,1.06,7.71,7.71,0,0,1,.5,1.84,1.73,1.73,0,0,0,1.1,1.51c.16.07.37.33.35.48,0,.33-.35.29-.6.22a2.44,2.44,0,0,1-1.6-2A7.23,7.23,0,0,0,45,26.36a1,1,0,0,0-1.14-.72,1.18,1.18,0,0,0-1.09.83,2.24,2.24,0,0,0-.13.92.79.79,0,0,0,.36.52c.54.34,1.12.61,1.66.95a1.33,1.33,0,0,1,0,2.25.7.7,0,0,0,0,1.19,1.33,1.33,0,0,1,0,2.3c-.26.17-.35.33-.24.6.44.12.89.21,1.31.35a4.94,4.94,0,0,1-1.18,9.53,4.95,4.95,0,0,1-1.27-9.81c.12,0,.32-.15.31-.22a.61.61,0,0,0-.21-.4,1.35,1.35,0,0,1,0-2.39.8.8,0,0,0,.08-1C42.4,30.41,42.34,29.88,43.11,28.83Z"/></g></g></g></svg>