<svg xmlns="http://www.w3.org/2000/svg" viewBox="0 0 76.58 76.58"><defs><style>.cls-1{fill:#090116;}.cls-1,.cls-2{opacity:0;}.cls-2{fill:none;stroke:#581ec6;stroke-miterlimit:10;}.cls-3{fill:#f2ebff;opacity:0.7;}</style></defs><title>Asset 11</title><g id="Layer_2" data-name="Layer 2"><g id="Layer_1-2" data-name="Layer 1"><rect class="cls-1" x="0.5" y="0.5" width="75.58" height="75.58"/><rect class="cls-2" x="0.5" y="0.5" width="75.58" height="75.58"/><path class="cls-3" d="M23.52,35.29a7.17,7.17,0,0,1-.93,0,.94.94,0,0,1-.89-.95.88.88,0,0,1,.92-1,6.29,6.29,0,0,0,4-1.14,6.57,6.57,0,0,1,7.77,1.2l.54.52a5.7,5.7,0,0,1,3.36-1.12,5.62,5.62,0,0,1,3.44,1.21,3.34,3.34,0,0,1,.32-.48,6.79,6.79,0,0,1,9.23-.52,1.53,1.53,0,0,0,.8.29c.58,0,1.17,0,1.75,0a1,1,0,0,1,1,.93,1,1,0,0,1-1,1c-.24,0-.47,0-.61,0a17.48,17.48,0,0,1,.46,3,6.36,6.36,0,0,1-4,6.16,6.39,6.39,0,0,1-7.3-1.1,6.46,6.46,0,0,1-2-7A.81.81,0,0,0,40,35.2a3.52,3.52,0,0,0-3.52.11.65.65,0,0,0-.34.93,6.79,6.79,0,1,1-13,3.7A6.86,6.86,0,0,1,23.52,35.29Z"/></g></g></svg>