<svg xmlns="http://www.w3.org/2000/svg" viewBox="0 0 76.58 76.58"><defs><style>.cls-1{fill:#090116;}.cls-1,.cls-2{opacity:0;}.cls-2{fill:none;stroke:#581ec6;stroke-miterlimit:10;}.cls-3{opacity:0.7;}.cls-4{fill:#f2ebff;}</style></defs><title>Asset 10</title><g id="Layer_2" data-name="Layer 2"><g id="Layer_1-2" data-name="Layer 1"><rect class="cls-1" x="0.5" y="0.5" width="75.58" height="75.58"/><rect class="cls-2" x="0.5" y="0.5" width="75.58" height="75.58"/><g class="cls-3"><path class="cls-4" d="M38.45,38.48A27.19,27.19,0,0,1,29.56,37a.8.8,0,0,1-.62-1.07c.34-1.59.64-3.18,1-4.76a3.35,3.35,0,0,1,4.45-2.48c.94.32,1.86.7,2.79,1.06a3,3,0,0,0,2.24,0l2.56-1a3.36,3.36,0,0,1,4.7,2.53c.34,1.54.63,3.09,1,4.63A.8.8,0,0,1,47,37,26.33,26.33,0,0,1,38.45,38.48Z"/><path class="cls-4" d="M39,48.13c-4.43-.09-8.31-.35-12-1.64a13.12,13.12,0,0,1-3.25-1.66c-1.85-1.34-1.85-3.28,0-4.67a16,16,0,0,1,2.72-1.5c.54-.26.87.05.81.65-.23,2.32.42,3.32,2.66,4a28.22,28.22,0,0,0,17.34-.14,3.07,3.07,0,0,0,2.24-3.65c0-.26,0-.69.14-.78a1,1,0,0,1,.85,0,18.21,18.21,0,0,1,2.93,1.82,2.35,2.35,0,0,1,.07,3.72,10.57,10.57,0,0,1-2.79,1.82,23,23,0,0,1-7.54,1.75C41.53,48,40,48.06,39,48.13Z"/><path class="cls-4" d="M38.32,43.53a26.82,26.82,0,0,1-8.57-1.36,2.07,2.07,0,0,1-1.54-2.64c.06-.28.13-.57.19-.85.17-.79.33-.88,1.12-.61a26.84,26.84,0,0,0,17.52,0c.8-.27,1-.19,1.14.67.53,2.43.2,3-2.19,3.69A26.59,26.59,0,0,1,38.32,43.53Z"/></g></g></g></svg>