<svg xmlns="http://www.w3.org/2000/svg" viewBox="0 0 76.58 76.58"><defs><style>.cls-1{fill:#090116;}.cls-1,.cls-2{opacity:0;}.cls-2{fill:none;stroke:#581ec6;stroke-miterlimit:10;}.cls-3{fill:#f2ebff;opacity:0.7;}</style></defs><title>Asset 12</title><g id="Layer_2" data-name="Layer 2"><g id="Layer_1-2" data-name="Layer 1"><rect class="cls-1" x="0.5" y="0.5" width="75.58" height="75.58"/><rect class="cls-2" x="0.5" y="0.5" width="75.58" height="75.58"/><path class="cls-3" d="M52.79,35.9s0-.1-.06-.12a.58.58,0,0,0-.16,0,1.21,1.21,0,0,0-.16.16,1.56,1.56,0,0,1-1.95.46c-.69-.27-1.34-.65-2-.9A25.84,25.84,0,0,0,45,34.48a14.09,14.09,0,0,0-2.7,0c.49-.43.89-.76,1.27-1.12.2-.19.54-.47.5-.62a1.24,1.24,0,0,0-.61-.7,3.75,3.75,0,0,0-2.8-.11A4.69,4.69,0,0,0,39,28.31c-.59-.51-.79-.51-1.37,0a4.52,4.52,0,0,0-1.72,3.48,3,3,0,0,0-.62-.06A18.66,18.66,0,0,0,33,32a1,1,0,0,0-.55.68c0,.16.27.42.45.59.4.37.81.72,1.22,1.08a10.05,10.05,0,0,0-4.86.67c-.91.36-1.8.81-2.69,1.22a1.84,1.84,0,0,1-2.55-.42s-.1-.05-.21-.09a.92.92,0,0,0-.07.26,15.93,15.93,0,0,0,.84,7.24c1.94,5.34,8.07,6.76,11.75,4.07a3.42,3.42,0,0,1,3.84,0,10.08,10.08,0,0,0,2.2,1,7.6,7.6,0,0,0,8.88-3.65A14.09,14.09,0,0,0,52.79,35.9ZM35,43.5H33.14v.13a23.69,23.69,0,0,1-2.81-.33,4.13,4.13,0,0,1-2.64-2.11c-.19-.3-.21-.57.16-.76a6.6,6.6,0,0,1,4.53-.89,4.34,4.34,0,0,1,3.16,3.52C35.57,43.47,35.28,43.49,35,43.5Zm13.85-2.22A4.56,4.56,0,0,1,45,43.54c-.55,0-1.1,0-1.65,0v0H41.65c-.63,0-.69-.11-.5-.72a4.13,4.13,0,0,1,3.27-3.28,6.68,6.68,0,0,1,4.37,1C49.19,40.67,49.05,41,48.87,41.28Z"/></g></g></svg>