<svg xmlns="http://www.w3.org/2000/svg" viewBox="0 0 76.58 76.58"><defs><style>.cls-1{fill:#090116;}.cls-1,.cls-2{opacity:0;}.cls-2{fill:none;stroke:#581ec6;stroke-miterlimit:10;}.cls-3{opacity:0.7;}.cls-4{fill:#f2ebff;}</style></defs><title>Asset 4</title><g id="Layer_2" data-name="Layer 2"><g id="Layer_1-2" data-name="Layer 1"><rect class="cls-1" x="0.5" y="0.5" width="75.58" height="75.58"/><rect class="cls-2" x="0.5" y="0.5" width="75.58" height="75.58"/><g class="cls-3"><path class="cls-4" d="M49.72,56.13H41c-.07-.57-.15-1.15-.23-1.73L38.37,36.61c-.31-2.3-.73-4.59-.88-6.89a24.65,24.65,0,0,1,.41-4.17c.07-.61.16-1.2.25-1.87,1.65,0,3.25,0,4.85,0,.18,0,.43.31.5.52.44,1.57.87,3.14,1.26,4.72a.9.9,0,0,0,1.07.81c.65,0,1.32,0,2.16,0C48.79,38.54,49.14,47.33,49.72,56.13Z"/><path class="cls-4" d="M37.63,39.71a28.52,28.52,0,0,1-.45,4.77c-.5,3.89-1,7.77-1.55,11.65H26.86c.55-8.76,1.09-17.53,1.65-26.39.88,0,1.56,0,2.23,0s1-.24,1.1-.86c.39-1.55.84-3.09,1.22-4.65.11-.42.28-.58.73-.57,1,0,2.07,0,3.22,0-.14,1.14-.19,2.16-.4,3.15a19.16,19.16,0,0,0,.23,6.67C37.13,35.57,37.54,37.64,37.63,39.71Z"/><path class="cls-4" d="M30.76,28.6H28.87c.21-1.56.41-3.08.66-4.59,0-.14.31-.31.48-.32.63,0,1.27,0,2.06,0Z"/><path class="cls-4" d="M44.52,23.68c.79,0,1.5,0,2.2,0,.15,0,.37.32.4.51.22,1.43.4,2.87.6,4.37H45.83Z"/><path class="cls-4" d="M40.4,22.51H36.18v-2H40.4Z"/><path class="cls-4" d="M29.81,22.55c0-.13-.06-.16,0-.18.09-2,.23-2.07,2.74-1.8v2H29.81Z"/><path class="cls-4" d="M46.89,22.51h-2.8v-2h2.5Z"/><path class="cls-4" d="M35,22.5H33.72V20.56H35Z"/><path class="cls-4" d="M41.61,20.53h1.26v1.95H41.61Z"/></g></g></g></svg>