<svg xmlns="http://www.w3.org/2000/svg" viewBox="0 0 76.58 76.58"><defs><style>.cls-1{fill:#090116;}.cls-1,.cls-2{opacity:0;}.cls-2{fill:none;stroke:#581ec6;stroke-miterlimit:10;}.cls-3{opacity:0.7;}.cls-4{fill:#f2ebff;}</style></defs><title>Asset 3</title><g id="Layer_2" data-name="Layer 2"><g id="Layer_1-2" data-name="Layer 1"><rect class="cls-1" x="0.5" y="0.5" width="75.58" height="75.58"/><rect class="cls-2" x="0.5" y="0.5" width="75.58" height="75.58"/><g class="cls-3"><path class="cls-4" d="M39.16,33.83q-.69.77-1.38,1.5c-.26.28-.55.5-.89.15s-.11-.63.16-.89l1.4-1.31L37.1,32.22l-1.44,1.55c-.27.29-.57.47-.9.12s-.1-.61.16-.85l1.52-1.47A21.42,21.42,0,0,0,33.58,30a3,3,0,0,0-1.76.2,7.2,7.2,0,0,0-1.39.85,5.3,5.3,0,0,1-6.68-.67c-.77-.76-1-.71-1.39.3A18.77,18.77,0,0,0,21.52,38c0,.76.15,1.52.24,2.37h.71c2.11,0,4.21,0,6.32,0a10.07,10.07,0,0,1,2.23.36c1,.26,2.05.6,3.1.92.74-2.62,2.66-3.37,5.05-3.4,1.59,0,2.2-.91,1.67-2.42A4,4,0,0,0,39.16,33.83Z"/><path class="cls-4" d="M30.41,44.37c1.6.45,3.14.93,4.7,1.34A33.38,33.38,0,0,0,53.69,45a1.92,1.92,0,0,0,.31-.11c.41-.22,1.08-.19,1.11-.84a2.64,2.64,0,0,0-.87-2.18c-.11-.1-.41,0-.59,0A31.73,31.73,0,0,1,42.1,44.06a29.43,29.43,0,0,1-9.39-1.73,18.27,18.27,0,0,0-6.64-.9c-1.24.06-2.49,0-3.74,0-.59,0-.86.22-.86.8v3.81c0,.48.25.66.7.66h7.56c.47,0,.68-.23.68-.69S30.41,44.93,30.41,44.37Z"/><path class="cls-4" d="M54,40.66a3.63,3.63,0,0,0-3.48-2.89c-1.16,0-2.33,0-3.48-.06a11,11,0,0,1-4.42-1.58l-.45-.25a.39.39,0,0,0-.16,0c0,.17,0,.35.05.52a2.46,2.46,0,0,1-2.53,3,11.62,11.62,0,0,0-2.2.28,2.79,2.79,0,0,0-2.1,2.3C41.61,43.87,47.81,43,54,40.66Z"/></g></g></g></svg>