<svg xmlns="http://www.w3.org/2000/svg" viewBox="0 0 76.58 76.58"><defs><style>.cls-1{fill:#090116;}.cls-1,.cls-2{opacity:0;}.cls-2{fill:none;stroke:#581ec6;stroke-miterlimit:10;}.cls-3{fill:#f2ebff;opacity:0.7;}</style></defs><title>Asset 6</title><g id="Layer_2" data-name="Layer 2"><g id="Layer_1-2" data-name="Layer 1"><rect class="cls-1" x="0.5" y="0.5" width="75.58" height="75.58"/><rect class="cls-2" x="0.5" y="0.5" width="75.58" height="75.58"/><path class="cls-3" d="M37,28.68a7.54,7.54,0,0,1-4.29-3.54,10.15,10.15,0,0,0-4.5,2.16,3.29,3.29,0,0,0-.93,1.32c-1.79,5.64-3.56,11.27-5.25,16.94a10.38,10.38,0,0,0-.15,3.11,1.07,1.07,0,0,0,.57.75c1.09.48,2.22.89,3.33,1.34a.65.65,0,0,0,1-.39c.24-.54.46-1.1.74-1.63a.87.87,0,0,0-.09-.94,4,4,0,0,1-.57-1.71c-.08-1.7,0-3.4,0-5.1a8.4,8.4,0,0,1,0-1.42.73.73,0,0,1,.53-.48c.18,0,.43.26.54.47a1.48,1.48,0,0,1,0,.67v5.69a2.24,2.24,0,0,0,2.22,2.26h7.36a5,5,0,0,0,.06-.58c0-6.05,0-12.09,0-18.14C37.63,29,37.4,28.84,37,28.68Zm17.34,17c-1.69-5.69-3.5-11.35-5.28-17a2.09,2.09,0,0,0-.34-.74,9.59,9.59,0,0,0-5-2.73,7.16,7.16,0,0,1-4.24,3.48.91.91,0,0,0-.75,1.05c0,5.87,0,11.74,0,17.62v.87h7.34a2.22,2.22,0,0,0,2.3-2.33v-6c0-.41.09-.79.58-.79s.58.39.58.8v.22c0,2,0,4.05-.07,6.07A7.59,7.59,0,0,1,49,47.87a1.37,1.37,0,0,0-.09.79c.2.58.49,1.14.74,1.71a.66.66,0,0,0,1,.39c1.11-.45,2.24-.86,3.34-1.33a1,1,0,0,0,.54-.62A10.46,10.46,0,0,0,54.36,45.64Zm-8.62-1.27a.83.83,0,0,1-.69-.35,17.88,17.88,0,0,1-.65-1.91c-.38-1.15-.79-2.3-1.11-3.47-.07-.25.18-.59.28-.88.27.15.69.25.77.47.62,1.76,1.17,3.54,1.75,5.31,0,.07,0,.14.09.36C46.07,44,45.92,44.35,45.74,44.37Zm.82,5c-.13,1.89-.13,1.89-1.9,1.89H31.4c-1.36,0-1.39,0-1.55-1.4,0-.14,0-.29,0-.49ZM40.33,22.82l-2,4.46h-.27l-2.18-4.46ZM52.87,53.65c-.94.33-1.45,0-2.36-1.61L55,50.29C55.35,52.47,55.11,52.85,52.87,53.65ZM25.8,52c-.66,1.21-1.21,1.65-1.95,1.35-2.29-.93-2.52-.7-2.34-3Zm16-26.08a7.33,7.33,0,0,1-2.08,1.28c.55-1.24,1.09-2.48,1.67-3.8.16.2.3.37.45.54C42.68,24.91,42.72,25.06,41.77,25.94Zm-5.08,1.3a5,5,0,0,1-2.79-2.53L35,23.56Z"/></g></g></svg>