<svg xmlns="http://www.w3.org/2000/svg" viewBox="0 0 76.58 76.58"><defs><style>.cls-1{fill:#090116;}.cls-1,.cls-2{opacity:0;}.cls-2{fill:none;stroke:#581ec6;stroke-miterlimit:10;}.cls-3{fill:#f2ebff;opacity:0.7;}</style></defs><title>Asset 5</title><g id="Layer_2" data-name="Layer 2"><g id="Layer_1-2" data-name="Layer 1"><rect class="cls-1" x="0.5" y="0.5" width="75.58" height="75.58"/><rect class="cls-2" x="0.5" y="0.5" width="75.58" height="75.58"/><path class="cls-3" d="M47.27,52.79H29.35V34.45L25.94,36l-3.35-5.18,3.83-3.44C27,26.93,27.53,26.49,28,26a5,5,0,0,1,3.08-1.58,23.66,23.66,0,0,0,2.32-.55.66.66,0,0,1,.79.24,5.32,5.32,0,0,0,8.2,0,.63.63,0,0,1,.73-.25l3.75.91a1.92,1.92,0,0,1,.55.24,4.4,4.4,0,0,1,.46.4L54,30.84,50.64,36l-3.37-1.56Z"/></g></g></svg>