<svg xmlns="http://www.w3.org/2000/svg" viewBox="0 0 76.58 76.58"><defs><style>.cls-1{fill:#090116;}.cls-1,.cls-2{opacity:0;}.cls-2{fill:none;stroke:#581ec6;stroke-miterlimit:10;}.cls-3{opacity:0.7;}.cls-4{fill:#f2ebff;}</style></defs><title>Asset 8</title><g id="Layer_2" data-name="Layer 2"><g id="Layer_1-2" data-name="Layer 1"><rect class="cls-1" x="0.5" y="0.5" width="75.58" height="75.58"/><rect class="cls-2" x="0.5" y="0.5" width="75.58" height="75.58"/><g class="cls-3"><path class="cls-4" d="M47.39,34.72a1.77,1.77,0,0,1-1-1.95c.13-.61-1.5-2.38-2.09-2.19a1.11,1.11,0,0,1-1-.24A9.36,9.36,0,0,0,30.11,42.85c.11.17.29.53.53.86a9.36,9.36,0,0,0,17-5.15.92.92,0,0,1,.35-.82C48.51,37.33,48,35,47.39,34.72ZM42,45.07A7.71,7.71,0,1,1,45,34.56,7.74,7.74,0,0,1,42,45.07Z"/><path class="cls-4" d="M47.13,43.13c.39,1.92.79,3.67,1.1,5.43.06.35-.21.76-.38,1.29.27.7.22.84-.64,1.3l-3.32,1.76c-.86.45-1,.41-1.55-.4A1.32,1.32,0,0,1,40.83,52c-1.15-1.22-2.32-2.41-3.54-3.68A10.33,10.33,0,0,0,47.13,43.13Z"/><path class="cls-4" d="M29.45,33.49c-.39-1.87-.78-3.62-1.09-5.39a2.26,2.26,0,0,1,.35-1.18c-.25-.94-.21-1,.66-1.49l3.32-1.76c.85-.44,1-.41,1.57.4.63-.25,1.07.09,1.5.55,1,1.09,2.06,2.15,3.09,3.23.11.11.2.23.35.41A10.28,10.28,0,0,0,29.45,33.49Z"/></g></g></g></svg>