<svg xmlns="http://www.w3.org/2000/svg" viewBox="0 0 14.01 14.01"><defs><style>.cls-1{fill:#fff5f5;opacity:0.65;}</style></defs><g id="Layer_2" data-name="Layer 2"><g id="Layer_1-2" data-name="Layer 1"><path class="cls-1" d="M7,0A7,7,0,1,1,0,7,7,7,0,0,1,7,0Zm.91,8.24c0-.57,0-1.15,0-1.72a1.43,1.43,0,0,0-.21-.69.85.85,0,0,0-1-.29.92.92,0,0,0-.61.93c0,1.17,0,2.34,0,3.5a1.17,1.17,0,0,0,.09.45.88.88,0,0,0,1,.52A.91.91,0,0,0,7.92,10C7.93,9.42,7.92,8.83,7.92,8.24ZM7,4.83A.83.83,0,0,0,7.88,4,.82.82,0,0,0,7,3.17.8.8,0,0,0,6.13,4,.8.8,0,0,0,7,4.83Z"/></g></g></svg>