<svg xmlns="http://www.w3.org/2000/svg" viewBox="0 0 14.96 13.62"><defs><style>.cls-1{fill:#00bc00;}</style></defs><g id="Layer_2" data-name="Layer 2"><g id="Layer_1-2" data-name="Layer 1"><path class="cls-1" d="M0,13.62V.43H11.14L11.2.5a2.55,2.55,0,0,0-.31.24c-.51.51-1,1-1.52,1.52a.63.63,0,0,1-.51.21H2.06v9.11h9.11v-.36c0-1.22,0-2.44,0-3.67A.72.72,0,0,1,11.4,7c.53-.51,1-1,1.56-1.55a3,3,0,0,1,.24-.22v8.41Z"/><path class="cls-1" d="M6.27,7.28,13.55,0,15,1.41,6.3,10.07,2.9,6.67,4.28,5.28Z"/></g></g></svg>