<svg width="18" height="15" viewBox="0 0 18 15" fill="none" xmlns="http://www.w3.org/2000/svg">
<path d="M17.3803 8.13114C17.3803 9.0337 16.6069 9.75737 15.6423 9.75737H1.73803C1.27708 9.75737 0.835002 9.58604 0.509058 9.28106C0.183113 8.97608 0 8.56244 0 8.13114C0 7.69984 0.183113 7.2862 0.509058 6.98123C0.835002 6.67625 1.27708 6.50491 1.73803 6.50491H9.55917L11.7317 8.13114L13.9043 6.50491H15.6423C16.1032 6.50491 16.5453 6.67625 16.8713 6.98123C17.1972 7.2862 17.3803 7.69984 17.3803 8.13114ZM8.69016 0C0.869016 0 0.869016 4.87869 0.869016 4.87869H16.5113C16.5113 4.87869 16.5113 0 8.69016 0ZM0.869016 12.1967C0.869016 13.5465 2.0335 14.6361 3.47606 14.6361H13.9043C15.3468 14.6361 16.5113 13.5465 16.5113 12.1967V11.3836H0.869016V12.1967Z" fill="#DE7446"/>
</svg>
