<svg xmlns="http://www.w3.org/2000/svg" viewBox="0 0 19.56 16.33"><defs><style>.cls-1{fill:#eedcff;}</style></defs><g id="Layer_2" data-name="Layer 2"><g id="Layer_1-2" data-name="Layer 1"><path class="cls-1" d="M19.56,0v14.4a1.68,1.68,0,0,1-1.9,1.9H4a2.35,2.35,0,0,1-2.47-1.85C1.07,13,.61,11.49.16,10A3.16,3.16,0,0,1,.89,6.77C2.32,5.18,3.74,3.58,5.18,2A5.82,5.82,0,0,1,9.5,0c3.27,0,6.55,0,9.82,0Zm-17,7.29H17.91V1.69l-.2,0c-2.79,0-5.58,0-8.37,0A3.87,3.87,0,0,0,6.58,2.9C5.24,4.32,4,5.8,2.58,7.32ZM17.91,9H14.69V10.6h3.22Z"/></g></g></svg>