<svg width="18" height="18" viewBox="0 0 18 18" fill="none" xmlns="http://www.w3.org/2000/svg">
<path d="M6.29441 9.11799C6.29439 9.10341 6.27846 9.08883 6.2758 9.07443C6.27522 9.07132 6.27466 9.06826 6.27398 9.0652C6.27113 9.0526 6.26765 9.04007 6.2628 9.02789L6.26103 9.02346C6.26103 9.02346 6.27524 9.02333 6.27522 9.02328L5.81737 7.84312V5.9248C5.81737 4.39124 4.83515 2.45575 4.79386 2.37417C4.71036 2.20861 4.44584 2.20861 4.36233 2.37417C4.32106 2.45575 3.3602 4.39124 3.3602 5.9248V7.84314L2.86877 9.02336V9.02349L2.86239 9.02792C2.85751 9.0401 2.85173 9.05262 2.84889 9.06523C2.8482 9.06829 2.84649 9.07134 2.84591 9.07446C2.84324 9.0889 2.85524 9.10343 2.85521 9.11801C2.85521 9.11838 2.86877 9.11873 2.86877 9.1191V14.7706C2.86877 14.9064 2.9302 15.0163 3.11449 15.0163V15.5077C3.11449 15.6435 3.19601 15.7502 3.3317 15.7502H5.78887C5.92455 15.7502 6.06309 15.6435 6.06309 15.5077V15.0163C6.18594 15.0163 6.30881 14.9064 6.30881 14.7706V9.11907C6.30876 9.1187 6.29441 9.11836 6.29441 9.11799ZM3.85162 5.92477C3.85162 4.94358 4.30646 3.73252 4.58888 3.07505C4.8713 3.73205 5.32591 4.9424 5.32591 5.92477V6.16725H3.85162V5.92477ZM3.85162 6.65866H5.32591V7.64151H3.85162V6.65866ZM3.7438 8.13295H5.37669L5.67161 8.87011H3.44891L3.7438 8.13295ZM5.57162 15.2587H3.6059V15.013H5.57162V15.2587ZM5.81734 14.5216H3.36018V9.36155H5.81734V14.5216Z" fill="#3FA2FF"/>
<path d="M10.7173 9.11799C10.7173 9.10341 10.7013 9.08883 10.6987 9.07443C10.6981 9.07132 10.6975 9.06826 10.6969 9.0652C10.694 9.0526 10.6905 9.04007 10.6857 9.02789L10.6839 9.02346C10.6839 9.02346 10.6981 9.02333 10.6981 9.02328L10.2403 7.84312V5.9248C10.2403 4.39124 9.25803 2.45575 9.21674 2.37417C9.13324 2.20861 8.86872 2.20861 8.78521 2.37417C8.74395 2.45575 7.78309 4.39124 7.78309 5.9248V7.84314L7.29165 9.02336V9.02349L7.28527 9.02792C7.28042 9.0401 7.27461 9.05262 7.27179 9.06523C7.27111 9.06829 7.26937 9.07134 7.26879 9.07446C7.26612 9.0889 7.27815 9.10343 7.2781 9.11801C7.2781 9.11838 7.29165 9.11873 7.29165 9.1191V14.7706C7.29165 14.9064 7.35308 15.0163 7.53737 15.0163V15.5077C7.53737 15.6435 7.6189 15.7502 7.75458 15.7502H10.2117C10.3474 15.7502 10.486 15.6435 10.486 15.5077V15.0163C10.6088 15.0163 10.7317 14.9064 10.7317 14.7706V9.11907C10.7317 9.1187 10.7173 9.11836 10.7173 9.11799ZM8.2745 5.92477C8.2745 4.94358 8.72934 3.73252 9.01176 3.07505C9.29418 3.73205 9.74879 4.9424 9.74879 5.92477V6.16725H8.2745V5.92477ZM8.2745 6.65866H9.74879V7.64151H8.2745V6.65866ZM8.16671 8.13295H9.7996L10.0945 8.87011H7.87181L8.16671 8.13295ZM9.99451 15.2587H8.02878V15.013H9.99451V15.2587ZM10.2402 14.5216H7.78306V9.36155H10.2402V14.5216Z" fill="#3FA2FF"/>
<path d="M15.1401 9.11799C15.1401 9.10341 15.1242 9.08883 15.1215 9.07443C15.1209 9.07132 15.1204 9.06826 15.1197 9.0652C15.1168 9.0526 15.1134 9.04007 15.1085 9.02789L15.1067 9.02346C15.1067 9.02346 15.1209 9.02333 15.1209 9.02328L14.6631 7.84312V5.9248C14.6631 4.39124 13.6809 2.45575 13.6396 2.37417C13.5561 2.20861 13.2915 2.20861 13.208 2.37417C13.1668 2.45575 12.2059 4.39124 12.2059 5.9248V7.84314L11.7145 9.02336V9.02349L11.7081 9.02792C11.7032 9.0401 11.6974 9.05262 11.6946 9.06523C11.6939 9.06829 11.6922 9.07134 11.6916 9.07446C11.6889 9.0889 11.701 9.10343 11.7009 9.11801C11.7009 9.11838 11.7145 9.11873 11.7145 9.1191V14.7706C11.7145 14.9064 11.7759 15.0163 11.9602 15.0163V15.5077C11.9602 15.6435 12.0417 15.7502 12.1774 15.7502H14.6346C14.7703 15.7502 14.9088 15.6435 14.9088 15.5077V15.0163C15.0316 15.0163 15.1545 14.9064 15.1545 14.7706V9.11907C15.1545 9.1187 15.1401 9.11836 15.1401 9.11799ZM12.6973 5.92477C12.6973 4.94358 13.1522 3.73252 13.4346 3.07505C13.717 3.73205 14.1716 4.9424 14.1716 5.92477V6.16725H12.6973V5.92477ZM12.6973 6.65866H14.1716V7.64151H12.6973V6.65866ZM12.5895 8.13295H14.2224L14.5173 8.87011H12.2946L12.5895 8.13295ZM14.4174 15.2587H12.4516V15.013H14.4174V15.2587ZM14.663 14.5216H12.2059V9.36155H14.663V14.5216Z" fill="#3FA2FF"/>
</svg>
