<svg xmlns="http://www.w3.org/2000/svg" viewBox="0 0 22.61 23.99"><defs><style>.cls-1{fill:#eedcff;}</style></defs><g id="Layer_2" data-name="Layer 2"><g id="Layer_1-2" data-name="Layer 1"><path class="cls-1" d="M16.48,24H11.83V18.33h-.95V24H6.22V18.12a26.44,26.44,0,0,1,10.26,0Zm-9.4-7.47L14,7.93c-2.85,1.32-5.12.71-7-1.67A3,3,0,0,0,5.62,8.39c-.07.48-.1,1-.14,1.45L4.88,17v0l1.6-.32M17.81,17c-.24-2.87-.48-5.73-.75-8.59A6.9,6.9,0,0,0,16.59,7L9.06,16.3a29.08,29.08,0,0,1,8.77.66ZM11.33,0A3.61,3.61,0,1,0,15,3.6,3.62,3.62,0,0,0,11.33,0Zm9.09.66a.38.38,0,0,0-.58,0C18.7,2.11,17.54,3.53,16.39,5L15.48,6.1l1.08.9c1.32-1.63,2.65-3.25,3.93-4.9a3.7,3.7,0,0,1,.37-.41.36.36,0,0,0,0-.49ZM1,19.51a.61.61,0,0,0,.51,0c.66-.23,1.32-.48,2-.69,1.36-.44,1.37-.43,1.41-1.9v0a25.94,25.94,0,0,0-4.7,1.57.3.3,0,0,0,0,.53Zm21.46-.4a.34.34,0,0,0,0-.61A25.56,25.56,0,0,0,17.81,17l0,0c0,.38.08.75.09,1.12a.45.45,0,0,0,.38.49c.92.29,1.82.61,2.73.91a.89.89,0,0,0,.73-.05Z"/></g></g></svg>