<svg xmlns="http://www.w3.org/2000/svg" viewBox="0 0 22.37 15.5"><defs><style>.cls-1{fill:#eedcff;}</style></defs><g id="Layer_2" data-name="Layer 2"><g id="Layer_1-2" data-name="Layer 1"><path class="cls-1" d="M10.1,3.23a7.21,7.21,0,0,1,.68-1.53A3.13,3.13,0,0,1,13.92,0a9.56,9.56,0,0,1,5.89,2.33,7,7,0,0,1-.39,11.16,9.38,9.38,0,0,1-6.07,2,3,3,0,0,1-2.61-1.75,14.06,14.06,0,0,1-1.26-6A19.58,19.58,0,0,1,10.1,3.23Z"/><path class="cls-1" d="M1.17,5.52a1.06,1.06,0,0,1-.92-.16A.87.87,0,0,1,0,4.66c0-.36.18-1,1.17-1.18L3.87,3l3-.52c1-.17,1.16.32,1.17.76A1.19,1.19,0,0,1,7.76,4a1.46,1.46,0,0,1-.92.48l-1.22.21L4,5,2.36,5.3l-1.18.21Z"/><path class="cls-1" d="M1.19,9.75C.17,9.93,0,9.32,0,9a1.16,1.16,0,0,1,.25-.76,1.58,1.58,0,0,1,.94-.48l2.65-.46,3-.52C7.6,6.59,8,6.85,8,7.52a1.15,1.15,0,0,1-.42.92,1.6,1.6,0,0,1-.77.31L5.64,9,4,9.25l-1.61.29-1.15.2Z"/><path class="cls-1" d="M1.15,14c-1,.18-1.14-.5-1.15-.8a1.11,1.11,0,0,1,.25-.76A1.42,1.42,0,0,1,1.13,12l1.21-.21,1.8-.32,1.52-.27L6.86,11c1-.17,1.15.42,1.15.79a1.14,1.14,0,0,1-.26.77,1.43,1.43,0,0,1-.87.47l-3.07.54L1.16,14Z"/></g></g></svg>