<svg xmlns="http://www.w3.org/2000/svg" viewBox="0 0 18.29 18.26"><defs><style>.cls-1{fill:#f2e9ff;}</style></defs><g id="Layer_2" data-name="Layer 2"><g id="Layer_1-2" data-name="Layer 1"><path class="cls-1" d="M9,6.69,6.72,9C6,8.2,5.18,7.4,4.38,6.62a.9.9,0,0,0-.52-.22c-.59,0-1.19,0-1.78,0a.93.93,0,0,1-.56-.22C1.07,5.76.66,5.34.25,4.9A.9.9,0,0,1,0,4.41Q0,3.35,0,2.28a.5.5,0,0,1,.19-.4A.53.53,0,0,1,.64,2c.57.55,1.12,1.11,1.67,1.66a.76.76,0,0,0,1.23,0c.24-.24.55-.44.44-.85a1,1,0,0,0-.2-.45C3.22,1.78,2.63,1.22,2.07.64A.57.57,0,0,1,1.91.19c0-.09.26-.17.4-.18C3,0,3.73,0,4.44,0A.83.83,0,0,1,4.9.2c.46.43.9.86,1.32,1.32a.88.88,0,0,1,.19.5c0,.6,0,1.19,0,1.79a.91.91,0,0,0,.23.55C7.43,5.16,8.23,5.93,9,6.69Z"/><path class="cls-1" d="M9.32,11.55l2.25-2.26,2.32,2.32a.74.74,0,0,0,.62.26c.59,0,1.17,0,1.75,0a.92.92,0,0,1,.53.21q.66.6,1.26,1.26a.89.89,0,0,1,.22.53c0,.69,0,1.39,0,2.09a.54.54,0,0,1-.21.42c-.07.05-.3-.07-.41-.17-.58-.56-1.15-1.14-1.72-1.71a.76.76,0,0,0-1.07,0l-.37.38a.76.76,0,0,0,0,1c.59.6,1.18,1.18,1.76,1.78a.52.52,0,0,1,.15.42.56.56,0,0,1-.4.19q-1.08,0-2.16,0a.73.73,0,0,1-.43-.18q-.69-.64-1.32-1.32a.92.92,0,0,1-.2-.5c0-.6,0-1.21,0-1.82a.83.83,0,0,0-.21-.52C10.89,13.11,10.1,12.33,9.32,11.55Z"/><path class="cls-1" d="M8.54,11.4,6.84,9.71a3.19,3.19,0,0,0,.32-.23q3.09-3.09,6.19-6.17a1,1,0,0,0,.37-.92c-.11-.57.14-.87.66-1.09C15.19,1,16,.53,16.76.12a.46.46,0,0,1,.66.11c.22.25.46.47.7.7a.4.4,0,0,1,.08.54c-.47.94-.93,1.88-1.42,2.81a.61.61,0,0,1-.47.27,1.81,1.81,0,0,0-1.66.72C12.63,7.33,10.58,9.36,8.54,11.4Z"/><path class="cls-1" d="M4.49,11l2.8,2.8-.17.2Q5.35,15.79,3.6,17.55a2.14,2.14,0,0,1-1.92.68A2,2,0,0,1,.51,15C1.77,13.59,3.17,12.33,4.49,11Z"/><path class="cls-1" d="M7.8,13.41,4.88,10.48a7.65,7.65,0,0,1,.74-.65.44.44,0,0,1,.43,0c.8.77,1.58,1.57,2.37,2.35a.32.32,0,0,1,0,.5Z"/></g></g></svg>