<svg xmlns="http://www.w3.org/2000/svg" viewBox="0 0 21.99 16.49"><defs><style>.cls-1{fill:#eedcff;}</style></defs><g id="Layer_2" data-name="Layer 2"><g id="Layer_1-2" data-name="Layer 1"><path class="cls-1" d="M22,9.86c0,1.18,0,2.37,0,3.55a2.3,2.3,0,0,1-2.29,2.28c-1.31.05-1.7.05-1.63-1.57,0-.49,0-1,0-1.53H15.71V14.5c0,1.45-.56,2-2,2H7.87A2,2,0,0,1,6.44,16c-.61-.57-1.25-1.11-1.87-1.66a1.67,1.67,0,0,1-.65-1.41c0-.61,0-1.23,0-1.88H2.35v2.18c0,.65-.28.93-.93.93a4.42,4.42,0,0,1-.63,0A.76.76,0,0,1,0,13.35V6.29A.76.76,0,0,1,.82,5.5a3.31,3.31,0,0,1,.63,0,.79.79,0,0,1,.9.91V8.59H3.92V5.72A1.6,1.6,0,0,1,5.7,3.92H8.61V2.39l-.37,0H6.09c-1.26,0-1.64-.48-1.37-1.71A.82.82,0,0,1,5.64,0H14c.65,0,.93.28.95.92v.6a.8.8,0,0,1-.87.84c-1,0-2,0-3,0V3.92h2.83a1.62,1.62,0,0,1,1.85,1.83V7H18V5c0-.77.28-1,1-1A5.19,5.19,0,0,1,20.19,4,2.24,2.24,0,0,1,22,6.21C22,7.43,22,8.64,22,9.86Z"/></g></g></svg>