<svg width="14" height="18" viewBox="0 0 14 18" fill="none" xmlns="http://www.w3.org/2000/svg">
<path d="M6.71208 6.65268C6.54428 6.4264 6.32754 6.249 6.06185 6.12047C5.79616 5.99254 5.5095 5.92858 5.20186 5.92858C4.69846 5.92858 4.26497 6.12469 3.9014 6.51691C3.53783 6.90913 3.35604 7.37678 3.35604 7.91986C3.35604 8.38751 3.46791 8.81744 3.69164 9.20966C3.91538 9.60189 4.43277 10.2204 5.24381 11.0652L6.14575 11.9703C6.29957 12.1362 6.48835 12.2192 6.71208 12.2192C6.93582 12.2192 7.12459 12.1362 7.27841 11.9703L8.15937 11.0878C8.95643 10.2581 9.47382 9.63568 9.71154 9.22053C9.94926 8.80598 10.0681 8.37242 10.0681 7.91986C10.0681 7.37678 9.88634 6.90913 9.52277 6.51691C9.15919 6.12469 8.72571 5.92858 8.2223 5.92858C7.92865 5.92858 7.64562 5.99254 7.37322 6.12047C7.10026 6.249 6.87988 6.4264 6.71208 6.65268ZM6.71208 17.8989H6.50233C6.43241 17.8989 6.36948 17.8838 6.31355 17.8536C4.48171 17.2351 2.97149 16.0093 1.7829 14.1761C0.594299 12.3435 0 10.3184 0 8.10089V3.82416C0 3.44702 0.10152 3.1076 0.304561 2.80589C0.507042 2.50418 0.769093 2.28545 1.09071 2.14968L6.12477 0.113141C6.32054 0.0377136 6.51631 0 6.71208 0C6.90785 0 7.10362 0.0377136 7.29939 0.113141L12.3334 2.14968C12.6551 2.28545 12.9174 2.50418 13.1204 2.80589C13.3229 3.1076 13.4242 3.44702 13.4242 3.82416V8.10089C13.4242 10.3184 12.8299 12.3435 11.6413 14.1761C10.4527 16.0093 8.94245 17.2351 7.11061 17.8536C7.04069 17.8838 6.90785 17.8989 6.71208 17.8989Z" fill="white"/>
</svg>
