<svg xmlns="http://www.w3.org/2000/svg" viewBox="0 0 12.32 17.78"><defs><style>.cls-1{fill:#f2e9ff;}</style></defs><g id="Layer_2" data-name="Layer 2"><g id="Layer_1-2" data-name="Layer 1"><path class="cls-1" d="M2.75,6.14c0-.94,0-1.89,0-2.84A3.39,3.39,0,0,1,5.8,0a3.45,3.45,0,0,1,3.66,2.5,3.58,3.58,0,0,1,.11.79c0,1.9,0,3.79,0,5.69a3.41,3.41,0,0,1-6.69.84,4.66,4.66,0,0,1-.13-1.06c0-.88,0-1.76,0-2.64Z"/><path class="cls-1" d="M5.46,16.41V15l-.63-.13A6.12,6.12,0,0,1,0,8.82C0,8.42,0,8,0,7.61a.69.69,0,0,1,.68-.76c.41,0,.67.31.69.78A14.07,14.07,0,0,0,1.52,10a4.77,4.77,0,0,0,9.37-.43c.07-.63,0-1.27.06-1.91,0-.48.27-.79.67-.79a.7.7,0,0,1,.7.78A9,9,0,0,1,12,10.86a6,6,0,0,1-4.8,4.08L6.87,15v1.4h.36c.74,0,1.48,0,2.22,0,.5,0,.82.29.81.71s-.32.66-.81.66H2.89c-.51,0-.83-.27-.82-.69s.32-.68.82-.68C3.74,16.4,4.58,16.41,5.46,16.41Z"/></g></g></svg>