<svg width="13" height="17" viewBox="0 0 13 17" fill="none" xmlns="http://www.w3.org/2000/svg">
<path d="M6.62339 13.9957C6.78347 13.982 6.92034 13.917 7.034 13.8006C7.14712 13.6837 7.20368 13.5429 7.20368 13.3783C7.20368 13.1862 7.14365 13.0319 7.02359 12.9156C6.90353 12.7987 6.75012 12.7471 6.56336 12.7608C6.01641 12.802 5.43611 12.6477 4.82247 12.2981C4.20882 11.948 3.82195 11.3132 3.66187 10.3939C3.63519 10.243 3.56502 10.1195 3.45136 10.0234C3.33824 9.92736 3.20831 9.87934 3.06157 9.87934C2.8748 9.87934 2.72139 9.95124 2.60133 10.095C2.48127 10.2394 2.44125 10.4076 2.48127 10.5997C2.70805 11.8483 3.24166 12.7402 4.08209 13.2754C4.92252 13.8105 5.76962 14.0506 6.62339 13.9957ZM6.40327 16.4656C4.57567 16.4656 3.05169 15.8207 1.83134 14.5309C0.610446 13.2411 0 11.6357 0 9.71468C0 8.34255 0.530404 6.8505 1.59121 5.23852C2.65149 3.62599 4.25551 1.87982 6.40327 0C8.55104 1.87982 10.1553 3.62599 11.2161 5.23852C12.2764 6.8505 12.8065 8.34255 12.8065 9.71468C12.8065 11.6357 12.1961 13.2411 10.9752 14.5309C9.75485 15.8207 8.23088 16.4656 6.40327 16.4656Z" fill="#45C2DE"/>
</svg>
