<svg xmlns="http://www.w3.org/2000/svg" xmlns:xlink="http://www.w3.org/1999/xlink" viewBox="0 0 209.19 40.79"><defs><style>.cls-1{fill:url(#linear-gradient);}.cls-2{fill:#4d007f;}.cls-3{fill:url(#linear-gradient-2);}.cls-4{fill:url(#linear-gradient-3);}.cls-5{fill:url(#linear-gradient-4);}.cls-6{fill:#560787;}.cls-13,.cls-15,.cls-6{opacity:0.61;}.cls-7{fill:url(#linear-gradient-5);}.cls-8{fill:url(#linear-gradient-6);}.cls-9{fill:url(#linear-gradient-7);}.cls-10{fill:url(#linear-gradient-8);}.cls-11{fill:#680000;}.cls-12{fill:url(#linear-gradient-9);}.cls-13,.cls-16{fill:#4c1421;}.cls-14{fill:url(#linear-gradient-10);}.cls-17{fill:url(#linear-gradient-11);}.cls-18{fill:url(#linear-gradient-12);}.cls-19{fill:url(#linear-gradient-13);}.cls-20{fill:url(#linear-gradient-14);}</style><linearGradient id="linear-gradient" x1="8.9" y1="2.09" x2="42.09" y2="2.09" gradientUnits="userSpaceOnUse"><stop offset="0" stop-color="#7d3ff3"/><stop offset="0.15" stop-color="#8342f4"/><stop offset="0.34" stop-color="#924bf5"/><stop offset="0.55" stop-color="#ac5bf7"/><stop offset="0.77" stop-color="#d070fb"/><stop offset="1" stop-color="#fc89ff"/></linearGradient><linearGradient id="linear-gradient-2" x1="21.04" y1="-4.93" x2="21.04" y2="51.33" gradientUnits="userSpaceOnUse"><stop offset="0" stop-color="#9f55ff"/><stop offset="1" stop-color="#5627e8"/></linearGradient><linearGradient id="linear-gradient-3" x1="114.73" y1="-5.34" x2="114.73" y2="55.8" gradientUnits="userSpaceOnUse"><stop offset="0" stop-color="#9f55ff"/><stop offset="1" stop-color="#6f27e8"/></linearGradient><linearGradient id="linear-gradient-4" x1="70.95" y1="-4.93" x2="70.95" y2="51.33" xlink:href="#linear-gradient-2"/><linearGradient id="linear-gradient-5" x1="18.06" y1="18.8" x2="41.95" y2="18.8" gradientUnits="userSpaceOnUse"><stop offset="0" stop-color="#fc89ff"/><stop offset="0.23" stop-color="#d070fb"/><stop offset="0.45" stop-color="#ac5bf7"/><stop offset="0.66" stop-color="#924bf5"/><stop offset="0.85" stop-color="#8342f4"/><stop offset="1" stop-color="#7d3ff3"/></linearGradient><linearGradient id="linear-gradient-6" x1="9.94" y1="20.04" x2="18.26" y2="20.04" xlink:href="#linear-gradient-5"/><linearGradient id="linear-gradient-7" x1="75.94" y1="16.04" x2="97.1" y2="16.04" xlink:href="#linear-gradient"/><linearGradient id="linear-gradient-8" x1="49.23" y1="3.32" x2="101.99" y2="3.32" xlink:href="#linear-gradient-5"/><linearGradient id="linear-gradient-9" x1="168.49" y1="14.25" x2="184.65" y2="14.25" gradientUnits="userSpaceOnUse"><stop offset="0" stop-color="#d82730"/><stop offset="1" stop-color="#9e2730"/></linearGradient><linearGradient id="linear-gradient-10" x1="165.67" y1="-7.71" x2="165.13" y2="54.5" gradientUnits="userSpaceOnUse"><stop offset="0" stop-color="#d82730"/><stop offset="0.81" stop-color="#7a2730"/></linearGradient><linearGradient id="linear-gradient-11" x1="140.63" y1="2.76" x2="203.54" y2="2.76" gradientUnits="userSpaceOnUse"><stop offset="0" stop-color="#ffc5ac"/><stop offset="0.11" stop-color="#f8a996"/><stop offset="0.32" stop-color="#ed7b72"/><stop offset="0.52" stop-color="#e45655"/><stop offset="0.7" stop-color="#dd3c41"/><stop offset="0.87" stop-color="#d92d34"/><stop offset="1" stop-color="#d82730"/></linearGradient><linearGradient id="linear-gradient-12" x1="177.5" y1="23.68" x2="196.14" y2="23.68" gradientUnits="userSpaceOnUse"><stop offset="0" stop-color="#d82730"/><stop offset="0.13" stop-color="#d92d34"/><stop offset="0.3" stop-color="#dd3c41"/><stop offset="0.48" stop-color="#e45655"/><stop offset="0.68" stop-color="#ed7b72"/><stop offset="0.89" stop-color="#f8a996"/><stop offset="1" stop-color="#ffc5ac"/></linearGradient><linearGradient id="linear-gradient-13" x1="140.43" y1="18.27" x2="164.33" y2="18.27" xlink:href="#linear-gradient-11"/><linearGradient id="linear-gradient-14" x1="132.36" y1="19.44" x2="140.68" y2="19.44" xlink:href="#linear-gradient-11"/></defs><g id="Layer_2" data-name="Layer 2"><g id="Layer_1-2" data-name="Layer 1"><path class="cls-1" d="M9.15,3.55a16.07,16.07,0,0,1,3.76-1.86A18.8,18.8,0,0,1,17.05.84c2.82-.18,5.57-.16,8.36-.2s5.56,0,8.34.07l4.17.12c1.39.07,2.77.11,4.16.22-1.38.12-2.77.18-4.16.27l-4.17.16c-2.78.11-5.56.13-8.33.16l-8.32,0A19.84,19.84,0,0,0,9.15,3.55Z"/><path class="cls-2" d="M42.4,14.26l-.65-.6-.63,1.16L21.34,23.47l-3.08.46.65.6L32,24.45v.1h0V27l-13,.08a7.6,7.6,0,0,1-5.53-2.18,7.41,7.41,0,0,1,0-10.72,7.71,7.71,0,0,1,5.53-2.27h9.59L42.74,1.65l-.66-.6-1.22.61-21.94.12a19.38,19.38,0,0,0-3.78.38A17.72,17.72,0,0,0,6,7.05,16.86,16.86,0,0,0,.65,19.6,16.69,16.69,0,0,0,6,32.08a17.79,17.79,0,0,0,12.92,5.1L42.39,37h0V24.49h0V14.26Z"/><path class="cls-2" d="M102.29,6.66a17.71,17.71,0,0,0-12.8-5l-4.82,0h0l-34.79,0L35.62,12.05,42.07,12h0l7.11,0,0,27.47-.65.78.65.6L59.53,30.66l.08-18.79,8.25,0h0a16.69,16.69,0,0,0-1.63,6.88V35.46H66l-.46.54.65.6,10.34-.07V29.07L89.22,29l8,0h0v9.73l-.65,1.2.65.6,10.28-10.11.07-1.48v-10A16.34,16.34,0,0,0,102.29,6.66ZM76.59,19.13h0a7,7,0,0,1,1.68-4.64l.07-.09c.17-.19.34-.37.53-.55s.31-.29.47-.43A7.47,7.47,0,0,1,83,11.74l.13,0h0l.42-.06.45,0h.33l5.17,0A7.62,7.62,0,0,1,95,13.74,7,7,0,0,1,97.25,19Z"/><polygon class="cls-2" points="118.06 25.66 111.85 25.7 111.84 31.69 111.19 31.9 111.84 32.5 118.91 32.45 118.92 25.66 118.27 25.06 118.06 25.66"/><polygon class="cls-2" points="118.27 14.46 117.92 15.06 111.85 15.1 111.85 20.9 111.2 21.3 111.85 21.9 118.92 21.85 118.92 15.05 118.27 14.46"/><path class="cls-3" d="M18.26,23.93,41.75,13.66V36.42l-23.48.16a17.79,17.79,0,0,1-12.92-5.1A16.65,16.65,0,0,1,0,19,16.89,16.89,0,0,1,5.35,6.45a17.79,17.79,0,0,1,9.14-4.89,19.38,19.38,0,0,1,3.78-.38l23.81-.13L27.86,11.29H18.27a7.75,7.75,0,0,0-5.54,2.27,7.22,7.22,0,0,0-2.29,5.37,7.16,7.16,0,0,0,2.29,5.35,7.59,7.59,0,0,0,5.53,2.18l13-.08V23.85Z"/><path class="cls-4" d="M118.27,14.45v6.8l-7.07.05V14.5Zm0,10.61v6.79l-7.07,0V25.1Z"/><path class="cls-5" d="M106.94,18.33v10l-.07,1.48L96.58,39.88V28.35h0l-8,.05-12.67.08v7.46L65.56,36V18.6c0-.16,0-.33,0-.49a16.61,16.61,0,0,1,1.63-6.87v0l8.69,7.31h0L96.6,18.4a7,7,0,0,0-2.28-5.26A7.62,7.62,0,0,0,88.84,11l-5.17,0h-.33l-.45,0-.42.06h-.13l-15.13.1L59,11.28l-.08,18.78L48.51,40.19V11.34l-7.1,0h0L35,11.45,49.23,1.05,84,1.08h0l4.82,0a17.71,17.71,0,0,1,12.8,5A16.34,16.34,0,0,1,106.94,18.33ZM67.21,11.22h0l8.7,7.31a7,7,0,0,1,1.68-4.64l.07-.09a6.82,6.82,0,0,1,.53-.55c.15-.15.31-.29.47-.43a7.47,7.47,0,0,1,3.68-1.68l.13,0h-.13Z"/><path class="cls-6" d="M82.34,11.12h.13l-.13,0a7.47,7.47,0,0,0-3.68,1.68c-.16.14-.32.28-.47.43a6.82,6.82,0,0,0-.53.55l-.07.09a7,7,0,0,0-1.68,4.64l-8.7-7.31h0Z"/><polygon class="cls-6" points="31.31 23.95 41.75 23.89 41.74 36.42 31.31 26.46 31.31 23.95"/><path class="cls-7" d="M18.26,23.93c1.88-1,3.8-2,5.72-2.92s3.87-1.8,5.83-2.67,3.92-1.69,5.92-2.46l3-1.16c1-.35,2-.73,3-1.06-.93.54-1.89,1-2.84,1.51L36,16.58c-1.92.94-3.87,1.81-5.82,2.68s-3.93,1.68-5.92,2.46S20.3,23.26,18.26,23.93Z"/><path class="cls-8" d="M12.73,13.56a8.1,8.1,0,0,0-1.77,4,7.74,7.74,0,0,0,.53,4.16,8.25,8.25,0,0,0,2.69,3.24,8.68,8.68,0,0,0,4.08,1.53,6.92,6.92,0,0,1-4.51-.87,7.86,7.86,0,0,1-3.17-3.5,7.56,7.56,0,0,1-.39-4.71A6.66,6.66,0,0,1,12.73,13.56Z"/><path class="cls-9" d="M75.94,18.53c1.72-.14,3.44-.26,5.16-.32S84.55,18,86.27,18c3.44-.09,6.88-.11,10.32-.08l-.45.46a7.63,7.63,0,0,0-.39-2.76,9.23,9.23,0,0,0-1.43-2.5,6.37,6.37,0,0,1,2,2.27,6.86,6.86,0,0,1,.76,3v.44H96.6c-3.44.08-6.89.11-10.33.06-1.72,0-3.44-.08-5.16-.12S77.67,18.65,75.94,18.53Z"/><path class="cls-10" d="M49.23,1.05c2.9-.13,5.8-.23,8.7-.28s5.8-.14,8.69-.14l8.7-.05L84,.63h.45v.45h0L84,.64c1.58,0,3.16,0,4.74,0a20.1,20.1,0,0,1,4.76.61,15.88,15.88,0,0,1,4.42,1.83,17.48,17.48,0,0,1,3.71,3,19.59,19.59,0,0,0-3.88-2.65,18.17,18.17,0,0,0-4.38-1.56,19.46,19.46,0,0,0-4.63-.4c-1.58.05-3.15.05-4.73.08h-.45V1.08h0l.45.45-8.7,0-8.7-.06c-2.89,0-5.79-.11-8.69-.16S52.13,1.17,49.23,1.05Z"/><path class="cls-11" d="M141.28,1.35a18.08,18.08,0,0,0-12.92,5.23A16.7,16.7,0,0,0,123,19a16.48,16.48,0,0,0,5.35,12.38,17.87,17.87,0,0,0,12.91,5.06l23.48-.16h0V23.78h0v-10l-.65-.6-.27,1L144.08,22.7l-.86-.19-2.61.81.65.6,13.05-.08v2.5l-13.05.09a7.67,7.67,0,0,1-5.53-2.17,7.06,7.06,0,0,1-2.29-5.3,7.15,7.15,0,0,1,2.3-5.33,7.79,7.79,0,0,1,5.53-2.25l3.55,0,11.69-.07,7-.15L176,1.15l-6.39-.07Z"/><path class="cls-11" d="M203.84,6.11a17.84,17.84,0,0,0-12.91-5.05l-4,0h0L176,1.15l-12.42,10,5.6.07v0h0c-.14.28-.27.56-.39.85s-.25.6-.35.91a17,17,0,0,0-1,5.76,16.49,16.49,0,0,0,5.34,12.38,17.88,17.88,0,0,0,12.91,5.06l5.22,0a18,18,0,0,0,12.92-5.23,16.71,16.71,0,0,0,5.36-12.44A16.5,16.5,0,0,0,203.84,6.11Zm-7.39,17.78a7.75,7.75,0,0,1-5.53,2.25l-5.22,0A7.58,7.58,0,0,1,180.17,24a7,7,0,0,1-2.29-5.3v-.13h0a6.92,6.92,0,0,1,.11-1.22,7.25,7.25,0,0,1,2.18-4,7.74,7.74,0,0,1,4.89-2.22h.25l-16.16.09h0l16.17-.09h.39l5.22,0a7.67,7.67,0,0,1,5.53,2.17,7.3,7.3,0,0,1,0,10.63Z"/><path class="cls-12" d="M168.5,10.63v0L177.23,18a6.92,6.92,0,0,1,.11-1.22,7.25,7.25,0,0,1,2.18-4,7.72,7.72,0,0,1,4.89-2.22h.24Z"/><path class="cls-13" d="M168.5,10.63v0L177.23,18a6.92,6.92,0,0,1,.11-1.22,7.25,7.25,0,0,1,2.18-4,7.72,7.72,0,0,1,4.89-2.22h.24Z"/><path class="cls-14" d="M140.61,23.32l23.5-10.19,0,22.58-23.48.16a17.85,17.85,0,0,1-12.91-5.06,16.48,16.48,0,0,1-5.35-12.38A16.7,16.7,0,0,1,127.71,6,18.08,18.08,0,0,1,140.63.75l28.3-.27L155.86,10.69l-11.69.07-3.55,0A7.77,7.77,0,0,0,135.09,13a7.15,7.15,0,0,0-2.3,5.33,7.06,7.06,0,0,0,2.29,5.3,7.67,7.67,0,0,0,5.53,2.17l13-.08V23.24ZM203.19,5.51a17.86,17.86,0,0,0-12.91-5l-4,0h0L175.32.55l-12.42,10,5.6.08h0v0l16.17-.09h.39l5.22,0a7.67,7.67,0,0,1,5.53,2.17,7.3,7.3,0,0,1,0,10.63,7.75,7.75,0,0,1-5.53,2.25l-5.22,0a7.58,7.58,0,0,1-5.53-2.17,7,7,0,0,1-2.29-5.3V18l-8.74-7.32c-.14.28-.27.56-.39.85s-.25.6-.35.91a17,17,0,0,0-1,5.76,16.49,16.49,0,0,0,5.34,12.38A17.87,17.87,0,0,0,185,35.61l5.22,0a18.06,18.06,0,0,0,12.92-5.23,16.71,16.71,0,0,0,5.36-12.44A16.5,16.5,0,0,0,203.19,5.51Zm-47.33,5.18,7-.15,12.42-10L168.93.48Z"/><g class="cls-15"><polygon class="cls-16" points="153.66 23.24 164.1 23.18 164.09 35.71 153.66 25.75 153.66 23.24"/></g><path class="cls-17" d="M203.19,5.51a21.15,21.15,0,0,0-3.71-2.6,17.49,17.49,0,0,0-4.22-1.58,18.48,18.48,0,0,0-4.45-.52l-4.56.1-1,0L186,.19h0l.31.72L174.84,1c-1.9,0-3.8,0-5.7-.07l-5.7,0c-3.8,0-7.6,0-11.41,0s-7.6-.1-11.4-.2c3.8-.17,7.6-.33,11.4-.42s7.61-.21,11.41-.25l5.7-.08c1.9,0,3.81,0,5.71.06h12.43l-.73.72h0l-.3-.72,4.57.07a19.14,19.14,0,0,1,4.58.68,16.89,16.89,0,0,1,4.22,1.84A18.37,18.37,0,0,1,203.19,5.51Z"/><path class="cls-18" d="M195.8,23.29a7.19,7.19,0,0,1-4.38,2.56,17.38,17.38,0,0,1-2.56.17l-2.51.05a20.58,20.58,0,0,1-2.57-.1,7.56,7.56,0,0,1-2.5-.85,7.4,7.4,0,0,1-3.34-3.82,8.93,8.93,0,0,0,3.68,3.13,7.92,7.92,0,0,0,2.28.6,21.93,21.93,0,0,0,2.45,0h2.51c.84,0,1.67.06,2.46,0A8.45,8.45,0,0,0,195.8,23.29Z"/><path class="cls-19" d="M140.63,23.4c1.88-1,3.8-2,5.72-2.91s3.88-1.81,5.83-2.68,3.93-1.69,5.92-2.46l3-1.15c1-.36,2-.74,3-1.06-.94.53-1.9,1-2.84,1.51l-2.88,1.41c-1.92.93-3.88,1.8-5.83,2.67s-3.93,1.69-5.92,2.46S142.67,22.74,140.63,23.4Z"/><path class="cls-20" d="M135.15,13a8.14,8.14,0,0,0-1.77,4,7.74,7.74,0,0,0,.53,4.16,8.25,8.25,0,0,0,2.69,3.24,8.69,8.69,0,0,0,4.08,1.54,7,7,0,0,1-4.51-.88,7.81,7.81,0,0,1-3.17-3.5,7.48,7.48,0,0,1-.39-4.71A6.69,6.69,0,0,1,135.15,13Z"/></g></g></svg>