<svg width="21" height="17" viewBox="0 0 21 17" fill="none" xmlns="http://www.w3.org/2000/svg">
<path d="M21 16.2917C21 16.4796 20.9263 16.6597 20.795 16.7925C20.6637 16.9254 20.4857 17 20.3 17H0.7C0.514348 17 0.336301 16.9254 0.205025 16.7925C0.0737498 16.6597 0 16.4796 0 16.2917C0 16.1038 0.0737498 15.9237 0.205025 15.7909C0.336301 15.658 0.514348 15.5834 0.7 15.5834H20.3C20.4857 15.5834 20.6637 15.658 20.795 15.7909C20.9263 15.9237 21 16.1038 21 16.2917ZM0.72625 6.57028C0.684534 6.42183 0.691875 6.26367 0.747155 6.11983C0.802436 5.976 0.90263 5.85437 1.0325 5.77344L10.1325 0.107038C10.2426 0.0370994 10.37 0 10.5 0C10.63 0 10.7574 0.0370994 10.8675 0.107038L19.9675 5.77344C20.0968 5.85452 20.1965 5.97602 20.2514 6.11954C20.3064 6.26306 20.3137 6.42079 20.2722 6.56887C20.2306 6.71694 20.1426 6.8473 20.0213 6.94021C19.9 7.03312 19.7521 7.08352 19.6 7.0838H17.5V12.7502H18.9C19.0857 12.7502 19.2637 12.8248 19.395 12.9577C19.5263 13.0905 19.6 13.2706 19.6 13.4585C19.6 13.6464 19.5263 13.8265 19.395 13.9593C19.2637 14.0922 19.0857 14.1668 18.9 14.1668H2.1C1.91435 14.1668 1.7363 14.0922 1.60503 13.9593C1.47375 13.8265 1.4 13.6464 1.4 13.4585C1.4 13.2706 1.47375 13.0905 1.60503 12.9577C1.7363 12.8248 1.91435 12.7502 2.1 12.7502H3.5V7.0838H1.4C1.24779 7.08396 1.09968 7.03392 0.9781 6.94125C0.856523 6.84859 0.768107 6.71835 0.72625 6.57028ZM11.9 12.0419C11.9 12.2298 11.9737 12.4099 12.105 12.5427C12.2363 12.6756 12.4143 12.7502 12.6 12.7502C12.7857 12.7502 12.9637 12.6756 13.095 12.5427C13.2263 12.4099 13.3 12.2298 13.3 12.0419V7.7921C13.3 7.60424 13.2263 7.42409 13.095 7.29125C12.9637 7.15842 12.7857 7.0838 12.6 7.0838C12.4143 7.0838 12.2363 7.15842 12.105 7.29125C11.9737 7.42409 11.9 7.60424 11.9 7.7921V12.0419ZM7.7 12.0419C7.7 12.2298 7.77375 12.4099 7.90503 12.5427C8.0363 12.6756 8.21435 12.7502 8.4 12.7502C8.58565 12.7502 8.7637 12.6756 8.89497 12.5427C9.02625 12.4099 9.1 12.2298 9.1 12.0419V7.7921C9.1 7.60424 9.02625 7.42409 8.89497 7.29125C8.7637 7.15842 8.58565 7.0838 8.4 7.0838C8.21435 7.0838 8.0363 7.15842 7.90503 7.29125C7.77375 7.42409 7.7 7.60424 7.7 7.7921V12.0419Z" fill="white"/>
</svg>
