<svg width="21" height="21" viewBox="0 0 21 21" fill="none" xmlns="http://www.w3.org/2000/svg">
<path d="M8.63788 1.82064L8.35077 1.64058C7.78885 1.29605 7.08749 1.09589 6.48456 1.28374C5.83651 1.48554 5.31971 1.9847 5.04901 2.73446L4.66346 2.53595C3.99901 2.19388 3.6512 2.18855 3.36286 2.31815C3.13276 2.4211 2.89282 2.66884 2.62089 3.0306L6.00057 5.6437C6.52967 5.81597 7.30487 5.81187 8.08006 5.61089C8.85936 5.40991 9.63456 5.01616 10.2006 4.48706L11.4762 1.33296C10.3523 0.444971 9.32694 0.959307 8.63788 1.82064ZM10.8158 4.95874C10.1185 5.66421 9.08085 6.13999 8.27284 6.35327C7.98983 6.4271 7.70682 6.48042 7.43202 6.50913C7.28026 6.75933 7.15311 7.01362 7.05467 7.26792C7.25155 8.2687 7.62069 9.08901 8.1744 9.76167L7.58378 10.2539C7.24335 9.8437 6.93983 9.40073 6.71014 8.90855C6.67323 9.86011 6.88651 10.8445 7.23514 11.8699L6.50917 12.116C5.86932 10.2457 5.65194 8.33023 6.55018 6.52554C6.24667 6.50093 5.95956 6.44351 5.69296 6.34917L5.68065 6.34507C5.50428 6.51323 5.33612 6.6896 5.17616 6.87417C3.8813 8.37534 3.16803 10.3728 3.54128 11.9273C3.74102 12.7599 4.09909 13.5474 4.61424 14.2201C5.36893 14.2037 6.0826 14.2201 6.73065 14.4662C7.03827 14.4334 7.35409 14.4128 7.68221 14.4128C8.85116 14.4128 9.90936 14.6302 10.7092 15.0076C11.0209 15.1552 11.3039 15.3316 11.5295 15.5326C11.5295 15.3152 11.5623 15.0814 11.6279 14.9091C11.2629 14.5646 11.0332 14.1462 11.0332 13.6705C11.0332 13.0101 11.4721 12.4646 12.1078 12.0708C12.1078 11.8822 12.1447 11.7017 12.2103 11.5294C11.7961 11.1726 11.5295 10.7296 11.5295 10.2128C11.5295 9.88882 11.6361 9.59351 11.8166 9.32691C11.6361 9.0644 11.5295 8.76909 11.5295 8.44507C11.5295 8.28511 11.5541 8.13745 11.5992 7.9939C11.2014 7.64116 10.9512 7.2064 10.9512 6.70601C10.9512 6.20972 11.1973 5.77905 11.591 5.43042C11.349 5.24175 11.0906 5.08179 10.8158 4.95874ZM15.3849 5.05308C14.3185 5.05308 13.3547 5.27866 12.6943 5.61089C12.0299 5.94312 11.7182 6.35327 11.7182 6.70601C11.7182 7.06284 12.0299 7.473 12.6943 7.80523C13.3547 8.13745 14.3185 8.36304 15.3849 8.36304C15.8484 8.36304 16.2873 8.31792 16.6933 8.24409V7.54683C17.2635 7.46069 17.7351 7.30483 18.0387 7.10386V7.82573C18.5514 7.67808 19.0435 7.13257 19.0558 6.70601C19.0558 6.35327 18.7441 5.94312 18.0797 5.61089C17.4152 5.27866 16.4555 5.05308 15.3849 5.05308ZM19.343 7.82983C19.2076 7.97339 19.0476 8.10874 18.8672 8.23179L18.8754 9.42124C19.3922 9.11362 19.6342 8.75679 19.6342 8.44507C19.6342 8.24819 19.5398 8.03491 19.343 7.82983ZM12.2965 8.46148C12.3088 8.81421 12.6205 9.21206 13.2726 9.54019C13.9371 9.87651 14.8969 10.098 15.9674 10.098C16.6359 10.098 17.2635 10.0078 17.8008 9.86011L17.8295 8.74448C17.124 8.99058 16.2873 9.12593 15.3849 9.12593C14.216 9.12593 13.1537 8.89214 12.3498 8.49019C12.3293 8.48198 12.3129 8.46968 12.2965 8.46148ZM12.3785 9.88882C12.3211 9.99956 12.2965 10.1103 12.2965 10.2128C12.2965 10.5697 12.6082 10.9798 13.2726 11.3121C13.9371 11.6443 14.8969 11.8658 15.9674 11.8658C16.5088 11.8658 17.0215 11.8125 17.4849 11.7099V10.7255C17.0092 10.8158 16.5006 10.8609 15.9674 10.8609C14.7943 10.8609 13.732 10.6312 12.9281 10.2251C12.7271 10.1267 12.5426 10.0119 12.3785 9.88882ZM19.5521 9.88882C19.3019 10.0652 19.0846 10.1964 18.8303 10.3072V11.2218C19.3758 10.906 19.6342 10.5369 19.6342 10.2128C19.6342 10.1103 19.6096 9.99956 19.5521 9.88882ZM19.8598 11.3982C19.7777 11.4802 19.6875 11.5582 19.5891 11.6361V12.965C20.0115 12.6779 20.2166 12.3621 20.2166 12.075C20.2166 11.8576 20.0976 11.6238 19.8598 11.3982ZM12.883 11.9724C12.8789 12.0093 12.8748 12.0421 12.8748 12.075C12.8748 12.4318 13.1865 12.8378 13.851 13.1701C14.5154 13.5064 15.4793 13.7279 16.5457 13.7279C17.1568 13.7279 17.7392 13.6541 18.2437 13.531V12.3046C17.5752 12.5179 16.8 12.6328 15.9674 12.6328C14.7943 12.6328 13.732 12.399 12.9281 11.997C12.9117 11.9888 12.8994 11.9806 12.883 11.9724ZM12.3252 12.8501C11.9683 13.1167 11.8002 13.408 11.8002 13.6705C11.8002 14.0273 12.1119 14.4333 12.7764 14.7697C13.4408 15.1019 14.4006 15.3234 15.4711 15.3234C15.8607 15.3234 16.2381 15.2947 16.5908 15.2414V14.4949H16.5457C15.3726 14.4949 14.3103 14.2611 13.5064 13.855C12.9937 13.6007 12.5672 13.2603 12.3252 12.8501ZM18.9902 14.1052C18.6662 14.2201 18.3135 14.3144 17.9361 14.3759V14.8722C18.014 14.8394 18.092 14.8066 18.1658 14.7697C18.5678 14.5646 18.8385 14.3349 18.9902 14.1052ZM19.3676 14.8517C19.2117 15.0076 19.0312 15.147 18.8303 15.2742V16.4472C19.3758 16.1355 19.6342 15.7664 19.6342 15.4423C19.6342 15.2537 19.548 15.0486 19.3676 14.8517ZM5.06542 14.9666C4.64706 14.9707 4.19589 15.024 3.72831 15.1347C2.79274 15.3521 1.98842 15.75 1.46342 16.1888C0.938424 16.6236 0.733346 17.0666 0.79487 17.3824C0.856393 17.6982 1.18042 17.9894 1.81206 18.1576C2.44165 18.3216 3.32225 18.3298 4.25741 18.1125C4.63475 18.0222 4.98749 17.9074 5.31151 17.772V16.923C5.91034 16.6564 6.35741 16.3365 6.55838 16.0248V17.0255C7.05467 16.599 7.24745 16.1724 7.19003 15.8607C7.1326 15.5449 6.80448 15.2537 6.17284 15.0896C5.85702 15.0076 5.47967 14.9625 5.06542 14.9666ZM7.71503 15.1798C7.82577 15.3398 7.9037 15.5203 7.94471 15.7212C7.98983 15.9673 7.96932 16.2052 7.89549 16.439C8.30155 16.5457 8.67069 16.6892 8.99061 16.8697C9.17108 16.9681 9.33924 17.0871 9.4869 17.2101C9.85604 17.124 10.1678 17.0009 10.3892 16.8533V17.6982C11.0496 17.3865 11.3531 17.005 11.3531 16.7015C11.3531 16.3939 11.0496 16.0125 10.3851 15.7007C9.72479 15.3931 8.77323 15.1839 7.71503 15.1798ZM12.3006 15.3849C12.2965 15.4013 12.2965 15.4218 12.2965 15.4423C12.2965 15.7992 12.6082 16.2052 13.2726 16.5416C13.9371 16.8738 14.8969 17.0953 15.9674 17.0953C16.5088 17.0953 17.0215 17.0378 17.4849 16.9394V15.8361C16.8779 16.0001 16.193 16.0904 15.4711 16.0904C14.298 16.0904 13.2357 15.8566 12.4318 15.4546C12.3867 15.43 12.3416 15.4054 12.3006 15.3849ZM12.4154 16.9148C12.3334 17.0501 12.2965 17.1814 12.2965 17.3085C12.2965 17.6654 12.6082 18.0714 13.2726 18.4078C13.9371 18.74 14.8969 18.9615 15.9674 18.9615C16.5088 18.9615 17.0215 18.9041 17.4849 18.8056V17.7228C17.0092 17.813 16.5006 17.8623 15.9674 17.8623C14.7943 17.8623 13.732 17.6285 12.9281 17.2224C12.7435 17.1322 12.5713 17.0296 12.4154 16.9148ZM19.5152 16.9148C19.2773 17.0748 19.0682 17.2019 18.8303 17.3044V18.3134C19.3758 18.0017 19.6342 17.6326 19.6342 17.3085C19.6342 17.1814 19.5973 17.0501 19.5152 16.9148ZM7.51405 17.1363C7.37049 17.3167 7.20233 17.489 7.01366 17.6449C6.37382 18.1822 5.47147 18.6169 4.42967 18.8589C4.05807 18.9451 3.68893 18.9984 3.33456 19.0271C3.46581 19.2445 3.69673 19.4578 4.03469 19.6464C4.59374 19.9623 5.41405 20.1755 6.3246 20.1755C6.73885 20.1755 7.1326 20.1304 7.49354 20.0525V19.1994C8.05956 19.1132 8.53534 18.9574 8.83885 18.7564V19.5111C9.24901 19.224 9.44589 18.9 9.44589 18.5923C9.44589 18.2355 9.17928 17.8541 8.61737 17.5382C8.31385 17.3701 7.93651 17.2306 7.51405 17.1363Z" fill="white"/>
</svg>
