<svg width="10" height="10" viewBox="0 0 10 10" fill="none" xmlns="http://www.w3.org/2000/svg">
<path d="M6.12807 4.99999L9.56807 1.56799C9.71872 1.41735 9.80335 1.21303 9.80335 0.99999C9.80335 0.786948 9.71872 0.582633 9.56807 0.43199C9.41743 0.281347 9.21311 0.196716 9.00007 0.196716C8.78703 0.196716 8.58272 0.281347 8.43207 0.43199L5.00007 3.87199L1.56807 0.43199C1.41743 0.281347 1.21311 0.196716 1.00007 0.196716C0.787032 0.196716 0.582716 0.281347 0.432073 0.43199C0.28143 0.582633 0.1968 0.786948 0.1968 0.99999C0.1968 1.21303 0.28143 1.41735 0.432073 1.56799L3.87207 4.99999L0.432073 8.43199C0.35709 8.50636 0.297575 8.59484 0.25696 8.69233C0.216345 8.78982 0.195435 8.89438 0.195435 8.99999C0.195435 9.1056 0.216345 9.21017 0.25696 9.30765C0.297575 9.40514 0.35709 9.49362 0.432073 9.56799C0.506444 9.64297 0.594924 9.70249 0.692412 9.7431C0.789899 9.78372 0.894464 9.80463 1.00007 9.80463C1.10568 9.80463 1.21025 9.78372 1.30773 9.7431C1.40522 9.70249 1.4937 9.64297 1.56807 9.56799L5.00007 6.12799L8.43207 9.56799C8.50644 9.64297 8.59492 9.70249 8.69241 9.7431C8.7899 9.78372 8.89446 9.80463 9.00007 9.80463C9.10568 9.80463 9.21025 9.78372 9.30773 9.7431C9.40522 9.70249 9.4937 9.64297 9.56807 9.56799C9.64305 9.49362 9.70257 9.40514 9.74319 9.30765C9.7838 9.21017 9.80471 9.1056 9.80471 8.99999C9.80471 8.89438 9.7838 8.78982 9.74319 8.69233C9.70257 8.59484 9.64305 8.50636 9.56807 8.43199L6.12807 4.99999Z" fill="white"/>
</svg>
