<svg width="12" height="13" viewBox="0 0 12 13" fill="none" xmlns="http://www.w3.org/2000/svg">
<path d="M3.8125 1.75H8.1875C8.30353 1.75 8.41481 1.70391 8.49686 1.62186C8.57891 1.53981 8.625 1.42853 8.625 1.3125C8.625 1.19647 8.57891 1.08519 8.49686 1.00314C8.41481 0.921094 8.30353 0.875 8.1875 0.875H3.8125C3.69647 0.875 3.58519 0.921094 3.50314 1.00314C3.42109 1.08519 3.375 1.19647 3.375 1.3125C3.375 1.42853 3.42109 1.53981 3.50314 1.62186C3.58519 1.70391 3.69647 1.75 3.8125 1.75ZM10.8125 2.625H1.1875C1.07147 2.625 0.960188 2.67109 0.878141 2.75314C0.796094 2.83519 0.75 2.94647 0.75 3.0625C0.75 3.17853 0.796094 3.28981 0.878141 3.37186C0.960188 3.45391 1.07147 3.5 1.1875 3.5H1.625V11.375C1.625 11.6071 1.71719 11.8296 1.88128 11.9937C2.04538 12.1578 2.26794 12.25 2.5 12.25H9.5C9.73206 12.25 9.95462 12.1578 10.1187 11.9937C10.2828 11.8296 10.375 11.6071 10.375 11.375V3.5H10.8125C10.9285 3.5 11.0398 3.45391 11.1219 3.37186C11.2039 3.28981 11.25 3.17853 11.25 3.0625C11.25 2.94647 11.2039 2.83519 11.1219 2.75314C11.0398 2.67109 10.9285 2.625 10.8125 2.625Z" fill="white"/>
</svg>
