<svg width="12" height="12" viewBox="0 0 14 14" fill="none" xmlns="http://www.w3.org/2000/svg">
<path d="M4.66666 13.6666C4.29999 13.6666 3.98621 13.5362 3.72532 13.2753C3.46399 13.014 3.33332 12.7 3.33332 12.3333C3.33332 11.9666 3.46399 11.6526 3.72532 11.3913C3.98621 11.1304 4.29999 11 4.66666 11C5.03332 11 5.3471 11.1304 5.60799 11.3913C5.86932 11.6526 5.99999 11.9666 5.99999 12.3333C5.99999 12.7 5.86932 13.014 5.60799 13.2753C5.3471 13.5362 5.03332 13.6666 4.66666 13.6666ZM11.3333 13.6666C10.9667 13.6666 10.6529 13.5362 10.392 13.2753C10.1307 13.014 9.99999 12.7 9.99999 12.3333C9.99999 11.9666 10.1307 11.6526 10.392 11.3913C10.6529 11.1304 10.9667 11 11.3333 11C11.7 11 12.014 11.1304 12.2753 11.3913C12.5362 11.6526 12.6667 11.9666 12.6667 12.3333C12.6667 12.7 12.5362 13.014 12.2753 13.2753C12.014 13.5362 11.7 13.6666 11.3333 13.6666ZM4.66666 10.3333C4.16666 10.3333 3.78888 10.1138 3.53332 9.67465C3.27777 9.23598 3.26666 8.79998 3.49999 8.36665L4.39999 6.73331L1.99999 1.66665H1.31666C1.12777 1.66665 0.972212 1.60265 0.84999 1.47465C0.727768 1.34709 0.666656 1.18887 0.666656 0.99998C0.666656 0.811091 0.730656 0.652646 0.858656 0.524646C0.986212 0.397091 1.14443 0.333313 1.33332 0.333313H2.41666C2.53888 0.333313 2.65555 0.366646 2.76666 0.433313C2.87777 0.49998 2.9611 0.594424 3.01666 0.716646L3.46666 1.66665H13.3C13.6 1.66665 13.8055 1.77776 13.9167 1.99998C14.0278 2.2222 14.0222 2.45554 13.9 2.69998L11.5333 6.96665C11.4111 7.18887 11.25 7.36109 11.05 7.48331C10.85 7.60554 10.6222 7.66665 10.3667 7.66665H5.39999L4.66666 8.99998H12.0167C12.2055 8.99998 12.3611 9.06376 12.4833 9.19131C12.6055 9.31931 12.6667 9.47776 12.6667 9.66665C12.6667 9.85553 12.6027 10.0138 12.4747 10.1413C12.3471 10.2693 12.1889 10.3333 12 10.3333H4.66666Z" fill="white"/>
</svg>
