<svg xmlns="http://www.w3.org/2000/svg" xmlns:xlink="http://www.w3.org/1999/xlink" viewBox="0 0 275.4 85.7"><defs><style>.cls-1{isolation:isolate;}.cls-2{fill:url(#linear-gradient);}.cls-3{opacity:0.2;mix-blend-mode:overlay;}.cls-4{fill:#ff6e8d;}.cls-5{fill:url(#linear-gradient-2);}</style><linearGradient id="linear-gradient" x1="137.7" y1="-25.1" x2="137.7" y2="147.97" gradientUnits="userSpaceOnUse"><stop offset="0.03" stop-color="#380051" stop-opacity="0.05"/><stop offset="0.08" stop-color="#3f004f" stop-opacity="0.1"/><stop offset="0.41" stop-color="#730042" stop-opacity="0.48"/><stop offset="0.68" stop-color="#990039" stop-opacity="0.76"/><stop offset="0.89" stop-color="#b10033" stop-opacity="0.93"/><stop offset="1" stop-color="#ba0031"/></linearGradient><linearGradient id="linear-gradient-2" x1="137.7" y1="85.7" x2="137.7" gradientUnits="userSpaceOnUse"><stop offset="0" stop-color="#1d0e3a" stop-opacity="0.05"/><stop offset="0.25" stop-color="#4a163f" stop-opacity="0.21"/><stop offset="0.76" stop-color="#9b2447" stop-opacity="0.49"/><stop offset="1" stop-color="#bb2a4a" stop-opacity="0.6"/></linearGradient></defs><title>lv4</title><g class="cls-1"><g id="Layer_2" data-name="Layer 2"><g id="Layer_1-2" data-name="Layer 1"><rect class="cls-2" width="275.4" height="85.7"/><g class="cls-3"><path class="cls-4" d="M220.56,4.68,214,11.21,235.92,33.1l6.52-6.53ZM264.78,0H256L238.49,17.48,245,24,266.9,2.12ZM246.6,0H225.24l-2.11,2.11L235.92,14.9,248.71,2.11ZM207,0l-2.11,2.11,6.53,6.53L220.1,0Zm52,47.68-6.53,6.53L274.42,76.1l1-1V64Zm15.36-15.36L261.63,45.11,274.42,57.9l1-1V33.3Zm-9.1-9.1L243.43,45.11,250,51.64l21.89-21.89Zm9.1-9.09-6.53,6.53,7.51,7.51V15.11ZM182.06,47.68l-6.53,6.53L197.42,76.1l6.52-6.53Zm39.81-9.09L200,60.48,206.51,67,228.4,45.12Zm-24.45-6.27L184.63,45.11,197.42,57.9l12.79-12.79Zm-9.1-9.1L166.43,45.11,173,51.64l21.89-21.89Zm9.1-9.09-6.53,6.53,21.89,21.88L219.31,36Zm63,66.46-5.11,5.11h10.22Zm-24.45-6.27L224.54,85.7H247.3Zm-9.1-9.1L206.34,85.7H219.4l13.95-14Zm9.1-9.09-6.53,6.53,21.89,21.88L257.81,78Z"/></g><path class="cls-5" d="M274.4,1V84.7H1V1H274.4m1-1H0V85.7H275.4V0Z"/></g></g></g></svg>