<svg xmlns="http://www.w3.org/2000/svg" xmlns:xlink="http://www.w3.org/1999/xlink" viewBox="0 0 705.11 314.97"><defs><style>.cls-1{fill:url(#linear-gradient);}.cls-2{fill:none;}.cls-3{isolation:isolate;}.cls-4{clip-path:url(#clip-path);}.cls-5{mask:url(#mask);}.cls-6{opacity:0.5;mix-blend-mode:overlay;}.cls-7{fill:#ec8bef;}.cls-8{opacity:0.56;fill:url(#linear-gradient-2);}.cls-9{clip-path:url(#clip-path-2);}.cls-10{fill:url(#radial-gradient);}.cls-11{fill:url(#radial-gradient-2);}</style><linearGradient id="linear-gradient" x1="-193.06" y1="61.5" x2="137.8" y2="61.5" gradientUnits="userSpaceOnUse"><stop offset="0.59" stop-color="#08003f" stop-opacity="0"/><stop offset="0.63" stop-color="#352f62" stop-opacity="0.18"/><stop offset="0.71" stop-color="#7c7899" stop-opacity="0.47"/><stop offset="0.78" stop-color="#b4b2c5" stop-opacity="0.7"/><stop offset="0.84" stop-color="#dddce4" stop-opacity="0.86"/><stop offset="0.89" stop-color="#f6f5f8" stop-opacity="0.96"/><stop offset="0.92" stop-color="#fff"/></linearGradient><clipPath id="clip-path" transform="translate(113.71 98.87)"><rect class="cls-2" x="0.13" width="572.13" height="112"/></clipPath><mask id="mask" x="0" y="0" width="304.97" height="314.97" maskUnits="userSpaceOnUse"><g transform="translate(113.71 98.87)"><rect class="cls-1" x="-102.74" y="-80" width="283" height="283"/></g></mask><linearGradient id="linear-gradient-2" x1="56.35" y1="154.87" x2="753.52" y2="154.87" gradientUnits="userSpaceOnUse"><stop offset="0.06" stop-color="#08003f" stop-opacity="0"/><stop offset="0.06" stop-color="#0a0041" stop-opacity="0.01"/><stop offset="0.12" stop-color="#440c7b" stop-opacity="0.16"/><stop offset="0.19" stop-color="#7315ab" stop-opacity="0.28"/><stop offset="0.25" stop-color="#981dd0" stop-opacity="0.38"/><stop offset="0.32" stop-color="#b222ea" stop-opacity="0.45"/><stop offset="0.4" stop-color="#c225fa" stop-opacity="0.49"/><stop offset="0.49" stop-color="#c726ff" stop-opacity="0.5"/><stop offset="0.56" stop-color="#bf24f6" stop-opacity="0.48"/><stop offset="0.66" stop-color="#a620de" stop-opacity="0.41"/><stop offset="0.77" stop-color="#7f18b6" stop-opacity="0.31"/><stop offset="0.89" stop-color="#470d7f" stop-opacity="0.17"/><stop offset="1" stop-color="#08003f" stop-opacity="0"/></linearGradient><clipPath id="clip-path-2" transform="translate(113.71 98.87)"><rect class="cls-2" x="0.22" width="573.03" height="112"/></clipPath><radialGradient id="radial-gradient" cx="-465.67" cy="-30345.06" r="212" gradientTransform="translate(1060.06 718.57) scale(1.4 0.02)" gradientUnits="userSpaceOnUse"><stop offset="0" stop-color="#ff6bff" stop-opacity="0.7"/><stop offset="0.1" stop-color="#e952fb" stop-opacity="0.61"/><stop offset="0.29" stop-color="#c126f3" stop-opacity="0.44"/><stop offset="0.43" stop-color="#a80aee" stop-opacity="0.34"/><stop offset="0.51" stop-color="#9f00ec" stop-opacity="0.3"/><stop offset="0.61" stop-color="#9100d8" stop-opacity="0.27"/><stop offset="0.75" stop-color="#6a009e" stop-opacity="0.2"/><stop offset="0.91" stop-color="#2b003f" stop-opacity="0.08"/><stop offset="1" stop-opacity="0"/></radialGradient><radialGradient id="radial-gradient-2" cx="-467.12" cy="-26946.26" r="212" gradientTransform="translate(1060.06 760.17) scale(1.4 0.02)" xlink:href="#radial-gradient"/></defs><title>nextlvlist</title><g class="cls-3"><g id="Layer_2" data-name="Layer 2"><g id="Layer_1-2" data-name="Layer 1"><g class="cls-4"><g class="cls-5"><g class="cls-6"><path class="cls-7" d="M-12.29,77.54,3.09,62.16l51.56,51.56L39.27,129.1ZM45.33,92.3,96.88,40.74l15.38,15.38L60.7,107.68ZM9.14,56.11,39.28,26,69.41,56.11,39.28,86.25Zm-42.85,0L17.85,4.55,33.23,19.93-18.33,71.48ZM23.91-1.49,39.28-16.87,90.84,34.69,75.46,50.06Z" transform="translate(113.71 98.87)"/></g><g class="cls-6"><path class="cls-7" d="M66.71,158.54l15.38-15.38,51.56,51.56L118.27,210.1Zm57.62,14.76,51.55-51.56,15.38,15.38L139.7,188.68ZM88.14,137.11,118.28,107l30.13,30.13-30.13,30.14Zm-42.85,0L96.85,85.55l15.38,15.38L60.67,152.48Zm57.62-57.6,15.37-15.38,51.56,51.56-15.38,15.37Z" transform="translate(113.71 98.87)"/></g><g class="cls-6"><path class="cls-7" d="M66.71-4.46,82.09-19.84l51.56,51.56L118.27,47.1ZM124.33,10.3l51.55-51.56,15.38,15.38L139.7,25.68ZM88.14-25.89,118.28-56l30.13,30.13L118.28,4.25Zm-42.85,0L96.85-77.45l15.38,15.38L60.67-10.52Zm57.62-57.6,15.37-15.38,51.56,51.56L154.46-31.94Z" transform="translate(113.71 98.87)"/></g><g class="cls-6"><path class="cls-7" d="M-92.29.54l15.38-15.38,51.56,51.56L-40.73,52.1ZM-34.67,15.3,16.88-36.26,32.26-20.88-19.3,30.68ZM-70.86-20.89-40.72-51l30.13,30.13L-40.72,9.25Zm-42.85,0,51.56-51.56,15.38,15.38L-98.33-5.52Zm57.62-57.6,15.37-15.38L10.84-42.31-4.54-26.94Z" transform="translate(113.71 98.87)"/></g><g class="cls-6"><path class="cls-7" d="M-83.29,164.54l15.38-15.38,51.56,51.56L-31.73,216.1Zm57.62,14.76,51.55-51.56,15.38,15.38L-10.3,194.68Zm-36.19-36.19L-31.72,113l30.13,30.13-30.13,30.14Zm-42.85,0,51.56-51.56,15.38,15.38-51.56,51.55Zm57.62-57.6,15.37-15.38,51.56,51.56L4.46,137.06Z" transform="translate(113.71 98.87)"/></g></g></g><rect class="cls-8" x="113.71" y="98.87" width="573.26" height="112"/><g class="cls-9"><ellipse class="cls-10" cx="408.47" cy="99.28" rx="296.64" ry="6.92"/><ellipse class="cls-11" cx="406.44" cy="210.24" rx="296.64" ry="6.92"/></g></g></g></g></svg>